<svg baseProfile="tiny" xmlns="http://www.w3.org/2000/svg" preserveAspectRatio="xMinYMin meet" viewBox="0 0 270 54" width="270" height="54"><linearGradient id="a" gradientUnits="userSpaceOnUse" x1="1" y1="25.5" x2="50" y2="25.5"><stop offset="0" stop-color="#fff"/><stop offset="1" stop-color="#13007C"/></linearGradient><path d="M25.5 50c-13.5 0-24.5-11-24.5-24.5s11-24.5 24.5-24.5 24.5 11 24.5 24.5-11 24.5-24.5 24.5z" fill="url(#a)"/><path d="M25.5 1.5c13.2 0 24 10.8 24 24s-10.8 24-24 24-24-10.8-24-24 10.8-24 24-24m0-1c-13.8 0-25 11.2-25 25s11.2 25 25 25 25-11.2 25-25-11.2-25-25-25z"/><g transform="translate(54)"><linearGradient id="a" gradientUnits="userSpaceOnUse" x1="1" y1="25.5" x2="50" y2="25.5"><stop offset="0" stop-color="#fff"/><stop offset="1" stop-color="#13007C"/></linearGradient><path fill="url(#a)" d="M1 1h49v49h-49z"/><path d="M49.5 1.5v48h-48v-48h48m1-1h-50v50h50v-50z"/></g><g transform="translate(108)"><linearGradient id="a" gradientUnits="userSpaceOnUse" x1="1" y1="25.5" x2="50" y2="25.5"><stop offset="0" stop-color="#fff"/><stop offset="1" stop-color="#13007C"/></linearGradient><path d="M16.9 50c-8.8 0-15.9-7.1-15.9-15.9v-17.2c0-8.8 7.1-15.9 15.9-15.9h17.3c8.7 0 15.8 7.1 15.8 15.9v17.3c0 8.7-7.1 15.8-15.9 15.8h-17.2z" fill="url(#a)"/><path d="M34.1 1.5c8.5 0 15.4 6.9 15.4 15.4v17.3c0 8.5-6.9 15.4-15.4 15.4h-17.2c-8.5 0-15.4-6.9-15.4-15.4v-17.3c0-8.5 6.9-15.4 15.4-15.4h17.2m0-1h-17.2c-9 0-16.4 7.3-16.4 16.4v17.3c0 9 7.3 16.4 16.4 16.4h17.3c9 0 16.4-7.3 16.4-16.4v-17.3c-.1-9.1-7.4-16.4-16.5-16.4z"/></g><g transform="translate(162)"><linearGradient id="a" gradientUnits="userSpaceOnUse" x1="1.538" y1="25.621" x2="49.462" y2="25.621"><stop offset="0" stop-color="#fff"/><stop offset="1" stop-color="#13007C"/></linearGradient><path fill="url(#a)" d="M25.5 41.4l-14.8 8.2 2.8-17.4-12-12.3 16.6-2.5 7.4-15.7 7.4 15.7 16.6 2.5-12 12.3 2.8 17.4z"/><path d="M25.5 2.9l6.8 14.5.2.5.5.1 15.4 2.3-11.1 11.4-.4.4.1.5 2.6 16.1-13.6-7.6-.5-.3-.5.3-13.6 7.5 2.6-16 .1-.5-.4-.4-11.1-11.4 15.4-2.3.5-.1.2-.5 6.8-14.5m0-2.4l-7.7 16.5-17.3 2.6 12.5 12.8-3 18.1 15.5-8.5 15.5 8.5-3-18.1 12.5-12.8-17.3-2.6-7.7-16.5z"/></g><g transform="translate(216)"><linearGradient id="a" gradientUnits="userSpaceOnUse" x1="1.059" y1="25.5" x2="49.941" y2="25.5"><stop offset="0" stop-color="#fff"/><stop offset="1" stop-color="#13007C"/></linearGradient><path fill="url(#a)" d="M13.3 50l-12.2-24.5 12.2-24.5h24.4l12.2 24.5-12.2 24.5z"/><path d="M37.4 1.5l12 24-12 24h-23.8l-12-24 12-24h23.8m.6-1h-25l-12.5 25 12.5 25h25l12.5-25-12.5-25z"/></g></svg>