<svg xmlns="http://www.w3.org/2000/svg" width="500.1" height="115.2" viewBox="0 0 500.1 115.2"><path d="M.1.1h19.2v115h-19.2v-115z" fill="#1B1E83" stroke="#000" stroke-width=".216" stroke-miterlimit="22.926"/><path d="M19.3 86.3h19.2v28.8h-19.2v-28.8zm0-86.2h19.2v28.8h-19.2v-28.8z" fill="#F31939"/><path d="M19.3 28.9h19.2v57.5h-19.2v-57.5zM11.7 32.6l1.2 3.6h3.8l-3.1 2.2 1.2 3.6-3.1-2.2-3.2 2.2 1.2-3.6-3.1-2.2h3.9l1.2-3.6zm0 40.6l1.2 3.6h3.8l-3.1 2.2 1.2 3.6-3.1-2.2-3.1 2.2 1.2-3.6-3.1-2.2h3.9l1.1-3.6zm-3.9-20.3l1.2 3.6h3.8l-3.1 2.2 1.2 3.7-3.1-2.3-3.1 2.3 1.2-3.7-3.1-2.2h3.9l1.1-3.6z" fill="#F7F719"/><path d="M38.5.1h346.2v115h-346.2v-115z" fill="#F7E016"/><g stroke="#000" stroke-linejoin="round" stroke-miterlimit="22.926"><path d="M51 48.5s-.1 0-.2 0-.4-.3-.4-.3l-.3-.2-.1-.3s-.2-.4-.1-.7c.1-.3.3-.4.4-.5.2-.1.5-.2.5-.2s.2-.1.3-.2c.1 0 .4-.1.4-.1s.1 0 .2-.1c.1 0 .2 0 .3 0 .1 0 .2-.1.4-.1.1 0 .4 0 .5 0s.4 0 .5 0c.1 0 .6 0 .7 0s.2 0 .3 0c.1 0 .4.1.5.1 0 0 .5.2.7.2.2 0 .5.1.7.2.2.1.3.2.4.3.1.1.1.3.1.4 0 .1 0 .3 0 .4 0 .1-.2.2-.2.2l-.2.3-.2.2s-.2.2-.3.2c-.1 0-1.6-.3-2.5-.3-.9.2-2.4.5-2.4.5z" fill="#EB181E" stroke-width=".054"/><path d="M53 46.3c0-.4.2-.8.4-.8s.4.4.4.8c0 .5-.2.9-.4.9-.3-.1-.4-.4-.4-.9zm.2 0c0-.4.1-.8.2-.8s.2.4.2.8-.1.8-.2.8c-.1-.1-.2-.4-.2-.8zm-.1-.9c0-.1.1-.3.3-.3.2 0 .3.1.3.3 0 .2-.1.3-.3.3-.1 0-.3-.1-.3-.3zm.5-.1v.2h-.5v-.2h.2v-.4h-.2v-.2h.2v-.2h.2v.2h.2v.2h-.2v.4h.1zm.1.2h-.5s0-.1 0-.1 0 0 0-.1h.2v-.2s0 0 .1 0 0 0 .1 0v.2h.2s0 0 0 .1c-.1.1-.1.1-.1.1z" fill="#906229" stroke-width=".054"/><path d="M53.7 45.5h-.5m-.1-.2h.2v-.2m.2 0v.2h.2m-.2-.2c.1 0 .2.1.2.2 0 .2-.1.3-.3.3-.2 0-.3-.1-.3-.3 0-.1.1-.2.2-.3" fill="none" stroke-width=".054"/><path d="M53.4 48.4h-1.5v-.8l-.1-.5c-.4-.6-.8-1-.9-.9 0-.1.1-.2.1-.2.4-.2 1.1.3 1.7 1.2 0 .1.1.2.1.2h1.2c0-.1.1-.2.2-.2.6-.9 1.3-1.5 1.7-1.2.1 0 .1.1.1.2-.1-.1-.5.3-.9.9v.5l-.2.4v.4h-1.5z" fill="#906229" stroke-width=".054"/><path d="M50.9 46.2c.3-.2.9.4 1.5 1.2m3.6-1.2c-.3-.2-1 .4-1.5 1.2" fill="none" stroke-width=".054"/><path d="M51.2 49.1c0-.2-.2-.3-.2-.3.6-.2 1.4-.3 2.4-.3s1.8.1 2.4.3c0 0-.1.1-.2.3 0 .1-.1.3-.1.3-.6-.2-1.3-.3-2.2-.3-.9 0-1.7.1-2.2.3.2 0 .1-.2.1-.3zm2.2.8c.8 0 1.6-.1 1.9-.2.2 0 .3-.2.3-.3 0 0 0-.1-.1-.1-.4-.2-1.3-.3-2.1-.3s-1.7.1-2.1.3c0 0-.1 0-.1.1s.1.2.3.3c.3.1 1.2.2 1.9.2zm2.5-1.5l-.2-.2s-.2.1-.4.1c-.3 0-.3-.3-.3-.3s-.2.2-.4.2-.3-.2-.3-.2-.2.2-.4.1c-.2 0-.4-.2-.4-.2s-.2.2-.4.3c-.2 0-.4-.2-.4-.2s-.1.2-.3.2c-.2 0-.4-.2-.4-.2s-.1.2-.3.3c-.2 0-.4-.1-.4-.1s0 .1 0 .1-.1 0-.1 0v.2c.6-.2 1.4-.3 2.4-.3.7 0 1.6.1 2.3.2z" fill="#906229" stroke-width=".054"/><path d="M53.4 47.5c.1.1.1.1.1.2 0 .2.1.4.3.4.2 0 .3-.1.3-.2v-.1.1c0 .2.2.3.4.3s.3-.2.3-.4l.1-.1v.1s0 .1 0 .1c0 .2.1.3.3.3.1 0 .2 0 .3-.1l.1-.1v.1c0 .1 0 .2.1.2 0 0 .1 0 .3-.1.2-.1.2-.2.2-.2v.1s-.2.3-.3.4c-.1 0-.2.1-.3.1-.1 0-.2-.1-.2-.2-.1 0-.2 0-.2 0-.2 0-.4-.1-.4-.3-.1.1-.2.2-.4.2s-.3-.1-.4-.2c-.1.1-.2.1-.3.1-.2 0-.3-.1-.4-.2-.1.1-.2.2-.4.2-.1 0-.2 0-.3-.1-.1.1-.2.2-.4.2-.1 0-.3 0-.4-.2 0 .2-.2.3-.4.3-.1 0-.2 0-.2 0 0 .1-.1.2-.2.2s-.2 0-.3-.1c-.1-.1-.3-.4-.3-.4v-.1s.1.1.2.2c.2.1.3.1.3.1.1 0 .1-.1.1-.2v-.1l.1.1c0 .1.2.1.3.1.2 0 .3-.1.3-.3 0 0 0-.1 0-.1l.1-.1.1.1c0 .2.2.4.4.4s.3-.1.3-.3c0 0 0-.1 0-.1v.1c0 .1.2.2.3.2.2 0 .4-.2.4-.4 0 0 0-.1 0-.1l.1-.1z" fill="#906229" stroke-width=".01"/><path d="M53.4 47.5c.1.1.1.1.1.2 0 .2.1.4.3.4.2 0 .3-.1.3-.2v-.1.1c0 .2.2.3.4.3s.3-.2.3-.4l.1-.1v.1s0 .1 0 .1c0 .2.1.3.3.3.1 0 .2 0 .3-.1l.1-.1v.1c0 .1 0 .2.1.2 0 0 .1 0 .3-.1.2-.1.2-.2.2-.2v.1s-.2.3-.3.4c-.1 0-.2.1-.3.1-.1 0-.2-.1-.2-.2-.1 0-.2 0-.2 0-.2 0-.4-.1-.4-.3-.1.1-.2.2-.4.2s-.3-.1-.4-.2c-.1.1-.2.1-.3.1-.2 0-.3-.1-.4-.2-.1.1-.2.2-.4.2-.1 0-.2 0-.3-.1-.1.1-.2.2-.4.2-.1 0-.3 0-.4-.2 0 .2-.2.3-.4.3-.1 0-.2 0-.2 0 0 .1-.1.2-.2.2s-.2 0-.3-.1c-.1-.1-.3-.4-.3-.4v-.1s.1.1.2.2c.2.1.3.1.3.1.1 0 .1-.1.1-.2v-.1l.1.1c0 .1.2.1.3.1.2 0 .3-.1.3-.3 0 0 0-.1 0-.1l.1-.1.1.1c0 .2.2.4.4.4s.3-.1.3-.3v-.1.1c0 .1.2.2.3.2.2 0 .4-.2.4-.4 0 0 0-.1 0-.1l.1-.1zm0 1c-1 0-1.8.1-2.4.3 0 0-.1 0-.1-.1 0 0 0-.1 0-.1.6-.2 1.5-.3 2.4-.3 1 0 1.8.1 2.4.3 0 0 .1 0 0 .1 0 0 0 .1-.1.1-.4-.2-1.2-.3-2.2-.3z" fill="#906229" stroke-width=".054"/><path d="M52.5 48.8c0-.1 0-.1.1-.1s.1 0 .1.1 0 .1-.1.1c0 0-.1 0-.1-.1z" fill="#fff" stroke-width=".054"/><path d="M53.4 48.9h-.3s-.1 0-.1-.1c0 0 0-.1.1-.1h.6s.1 0 .1.1 0 .1-.1.1h-.3z" fill="#EB181E" stroke-width=".054"/><path d="M51.9 49h-.2s-.1 0-.1-.1c0 0 0-.1.1-.1h.4s.1 0 .1.1c0 0 0 .1-.1.1h-.2z" fill="#0D784C" stroke-width=".054"/><path d="M51 49.1l.1-.2h.2l-.1.2h-.2z" fill="#EB181E" stroke-width=".054"/><path d="M54.1 48.8c0-.1 0-.1.1-.1 0 0 .1 0 .1.1s-.1.1-.1.1c-.1 0-.1 0-.1-.1z" fill="#fff" stroke-width=".054"/><path d="M54.9 49h.2s.1 0 .1-.1c0 0 0-.1-.1-.1h-.4s-.1 0-.1.1c0 0 0 .1.1.1h.2z" fill="#0D784C" stroke-width=".054"/><path d="M55.8 49.1v-.2h-.2l.1.2h.1z" fill="#EB181E" stroke-width=".054"/><path d="M53.4 49.8c-.8 0-1.5-.1-2-.2.5-.1 1.2-.2 2-.2s1.5.1 2 .2c-.5.1-1.2.2-2 .2z" fill="#EB181E" stroke-width=".01"/><path d="M54 49.3v.4m-.3-.4v.4m-.3-.4v.4m-.2-.4v.4m-.2-.4v.4m-.2-.4v.4m-.2-.3v.4m-.3-.4v.4m-.1-.4v.3m-.2-.3v.2m-.3-.1v.1" fill="none" stroke-width=".054"/><path d="M53.4 49.8c-.8 0-1.5-.1-2-.2.5-.1 1.2-.2 2-.2s1.5.1 2 .2c-.5.1-1.2.2-2 .2z" fill="none" stroke-width=".054"/><path d="M55.8 48c0-.1 0-.1 0-.1s-.1 0-.1.1c0 0 0 .1 0 .1.1 0 .1 0 .1-.1zm-1.5-.3c0-.1 0-.1 0-.1s-.1 0-.1.1c0 0 0 .1 0 .1.1 0 .1 0 .1-.1zm-1.8 0c0-.1 0-.1 0-.1s.1 0 .1.1c0 0 0 .1-.1.1.1 0 0 0 0-.1zm-1.5.3c0-.1 0-.1 0-.1s.1 0 .1.1c0 0 0 .1 0 .1s0 0-.1-.1zm2.4-1.2l-.3.2.2.4h.1l.2-.4-.2-.2zm-.6.6l.1.2.4-.1.1-.1h-.1l-.4-.2-.1.2zm1.2 0l-.1.2-.4-.1v-.1l.4-.2.1.2zm-2.3-.4l-.2.2.3.4h.1v-.1l.1-.4-.3-.1zm-.5.7l.2.2.4-.2v-.1l-.1-.1h-.4l-.1.2zm1.2-.2l-.1.2h-.5v-.1l.4-.2.2.1zm-1.6.3v.2h-.5v-.1l.3-.3.2.2zm.8-.2c0-.1.1-.1.2-.1s.1 0 .1.1 0 .2-.1.2-.2-.1-.2-.2zm3.6-.6l.2.2-.3.4v-.1l-.1-.4.2-.1zm.4.7l-.2.2-.4-.2v-.2h.4l.2.2zm-1.1-.2l.1.2h.5v-.1l-.4-.2-.2.1zm1.5.3v.2h.5v-.1l-.3-.3-.2.2zm-2.7-.4c0-.1 0-.2.1-.2s.2.1.2.2-.1.1-.2.1c0 .1-.1 0-.1-.1zm1.6.2c0-.1.1-.1.2-.1s.1 0 .1.1 0 .2-.1.2-.2-.1-.2-.2zm-4.7.5s-.1-.2-.2-.2-.2-.1-.2-.1.1-.1.2-.1c0 0 .1 0 .1.1v-.1s.1 0 .1.1c.1 0 0 .2 0 .3 0-.1 0-.1 0 0zm0-.1s.1 0 .2 0c0 0 .1.1 0 .2 0 0-.1 0-.2 0 0-.1 0-.2 0-.2zm6.4.1s.1-.2.2-.2.2-.1.2-.1-.1-.1-.2-.1c0 0-.1 0-.1.1v-.1s-.1 0-.1.1c-.1 0 0 .2 0 .3 0-.1 0-.1 0 0zm0-.1s-.1 0-.2 0c0 0 0 .1 0 .2 0 0 .1 0 .2 0 0-.1 0-.2 0-.2zm-6.7 1.9h7v1.9h-7v-1.9zm.8 3.2s0 0 .1 0h5.3s.1 0 .1 0c-.2-.1-.3-.2-.3-.4s.1-.4.3-.4c0 0-.1 0-.2 0h-5.3s-.1 0-.1 0c.2 0 .3.2.3.4 0 .1 0 .3-.2.4zm.1 0h5.2c.2 0 .3.1.3.2s-.1.2-.3.2h-5.3c-.2 0-.3-.1-.3-.2.1-.1.2-.2.4-.2zm0-1.3h5.2c.2 0 .3.1.3.2s-.2.2-.3.2h-5.3c-.2 0-.3-.1-.3-.2.1-.1.2-.2.4-.2z" fill="#906229" stroke-width=".054"/><path d="M58.3 84.3c-.5 0-.9-.1-1.2-.3-.3-.2-.7-.3-1.2-.3s-.9.1-1.2.3c-.3.2-.8.3-1.2.3-.5 0-.9-.1-1.2-.3-.3-.2-.7-.3-1.2-.3s-.9.1-1.2.3c-.3.2-.8.3-1.2.3v.8c.5 0 .9-.1 1.2-.3.3-.2.7-.2 1.2-.2.4 0 .9.1 1.2.2s.8.3 1.2.3c.5 0 .9-.1 1.2-.3.3-.2.7-.3 1.2-.3s.9.1 1.2.2c.3.2.8.3 1.2.3v-.7z" fill="#17569F" stroke-width=".054"/><path d="M58.3 85.1c-.5 0-.9-.1-1.2-.3-.3-.2-.7-.2-1.2-.2s-.9.1-1.2.3c-.3.2-.8.3-1.2.3-.5 0-.9-.1-1.2-.3-.3-.2-.7-.2-1.2-.2s-.9.1-1.2.2c-.3.2-.8.3-1.2.3v.8c.5 0 .9-.1 1.2-.3.3-.2.7-.3 1.2-.3.4 0 .9.1 1.2.2.3.2.8.3 1.2.3.5 0 .9-.1 1.2-.3.3-.2.7-.3 1.2-.3s.9.1 1.2.3c.3.2.8.3 1.2.3v-.8z" fill="#B3B3B3" stroke-width=".054"/><path d="M58.3 85.9c-.5 0-.9-.1-1.2-.3-.3-.2-.7-.3-1.2-.3s-.9.1-1.2.3c-.3.2-.8.3-1.2.3-.5 0-.9-.1-1.2-.3-.3-.1-.7-.2-1.2-.2s-.9.1-1.2.3c-.3.2-.8.3-1.2.3v.8c.5 0 .9-.1 1.2-.3.3-.2.7-.3 1.2-.3.4 0 .9.1 1.2.3.3.2.8.3 1.2.3.5 0 .9-.1 1.2-.3.3-.2.7-.3 1.2-.3s.9.1 1.2.3c.3.2.8.3 1.2.3v-.9z" fill="#17569F" stroke-width=".054"/><path d="M58.3 87.5c-.5 0-.9-.1-1.2-.3-.3-.2-.7-.3-1.2-.3s-.9.1-1.2.3c-.3.2-.8.3-1.2.3-.5 0-.9-.1-1.2-.3-.3-.2-.7-.2-1.2-.2s-.9.1-1.2.2c-.3.2-.8.3-1.2.3v-.8c.5 0 .9-.1 1.2-.3.3-.2.7-.3 1.2-.3.4 0 .9.1 1.2.3.3.2.8.3 1.2.3.5 0 .9-.1 1.2-.3.3-.2.7-.3 1.2-.3s.9.1 1.2.3c.3.2.8.3 1.2.3v.8z" fill="#B3B3B3" stroke-width=".054"/><path d="M58.3 88.3c-.5 0-.9-.1-1.2-.3-.3-.2-.7-.3-1.2-.3s-.9.1-1.2.3c-.3.2-.8.3-1.2.3-.5 0-.9-.1-1.2-.3-.3-.1-.7-.2-1.2-.2s-.9.1-1.2.3c-.3.2-.8.3-1.2.3v-.8c.5 0 .9-.1 1.2-.3.2-.3.6-.3 1.1-.3.4 0 .9.1 1.2.2s.8.3 1.2.3c.5 0 .9-.1 1.2-.3.4-.2.8-.2 1.3-.2s.9.1 1.2.3c.3.2.8.3 1.2.3v.7z" fill="#17569F" stroke-width=".054"/><path d="M50.7 81s0 .1 0 .2c0 .5-.4.9-.9.9h7.2c-.5 0-.9-.4-.9-.9 0 0 0-.1 0-.2 0 0-.1 0-.1 0h-5.3c.1.1 0 0 0 0zm.1-.5h5.2c.2 0 .3.1.3.2s-.1.3-.3.3h-5.3c-.2 0-.3-.1-.3-.3.1-.1.2-.2.4-.2zm-.9 1.6h7.2v1.9h-7.2v-1.9z" fill="#906229" stroke-width=".054"/><path d="M49.3 73.7c-.7.4-1.2.9-1.1 1.1 0 .2.2.4.6.6.5.4.8 1.1.6 1.3.4-.4.7-.9.7-1.5-.1-.6-.4-1.1-.8-1.5z" fill="#EB181E" stroke-width=".054"/><path d="M50.9 53.9h5.1v26.3h-5.1v-26.3z" fill="#B3B3B3" stroke-width=".01"/><path d="M54.5 53.9v26.3m.6-26.3v26.3" fill="none" stroke-width=".054"/><path d="M61.2 63.8c-1.1-.5-3-.9-5.2-.9-.8 0-1.6.1-2.4.2-3.1.5-5.4 1.8-5.2 2.9 0 0 0 0 0 .1 0 0-1.1-2.7-1.1-2.8-.2-1.2 2.4-2.6 5.8-3.2 1.1-.2 2.1-.3 3-.2 2.2 0 4.1.3 5.2.7v3.2h-.1z" fill="#EB181E" stroke-width=".01"/><path d="M50.9 67c-1.4-.1-2.4-.5-2.5-1.1-.1-.5.4-1.1 1.2-1.5.4 0 .8.1 1.3.1v2.5zm5.1-1.9c.9.1 1.5.4 1.9.6.1.3-.6 1.1-1.9 1.9v-2.5zm-8.3 7c-.1-.4 1.2-1.3 3.2-2 .9-.3 1.6-.7 2.5-1.1 2.7-1.3 4.7-2.7 4.5-3.2.1.1.4 2.7.4 2.7.2.5-1.6 1.9-4.1 3.2-.8.4-2.5 1.1-3.3 1.3-1.4.5-2.8 1.5-2.7 1.9l-.5-2.8z" fill="#EB181E" stroke-width=".054"/><path d="M50.5 62.4c.6-.2 1.1-.5.9-1.1-.1-.3-.4-.4-.9-.2l-.9.3.8 2c.1 0 .2-.1.2-.1.1 0 .2 0 .2-.1l-.3-.8zm-.3-.9l.2-.1c.2 0 .4 0 .4.3.1.2 0 .4-.1.5-.1 0-.1.1-.2.1l-.3-.8zm2.3-.9c-.1 0-.2 0-.3.1-.1 0-.2 0-.2 0l.4 2.1 1.4-.3s0-.1 0-.1 0-.1 0-.1c-.2 0-.5.1-.8.2l-.5-1.9zm2.8 1.8c.2-.8.6-1.5.9-2.2 0 0-.1 0-.2 0 0 0-.1 0-.2 0-.2.5-.4 1.1-.6 1.6-.2-.5-.5-1-.8-1.5-.1 0-.2 0-.3 0-.1 0-.2 0-.3 0 .4.7.8 1.3 1.1 2.1 0 0 .1 0 .1 0 .2 0 .3 0 .3 0zm2.9-1.6c0-.1.1-.2.1-.3 0-.1-.3-.2-.6-.2-.6 0-.9.2-.9.6 0 .8 1.1.7 1 1.2 0 .2-.2.3-.4.3s-.4-.2-.5-.4c0 .1-.1.2-.2.4.2.1.4.2.6.2.6.1 1-.2 1.1-.6.1-.7-1.1-.8-1-1.2 0-.2.1-.3.4-.2.2-.1.3 0 .4.2z" fill="#906229" stroke-width=".054"/><path d="M100.3 47.9s-.2.2-.4.3c-.2 0-.4-.2-.4-.2s-.1.2-.3.2c-.2 0-.4-.2-.4-.2s-.2.2-.3.3c-.2 0-.4-.1-.4-.1s-.1.1-.2.2c0 0-.2 0-.2 0l-.2-.1-.2-.2-.2-.1s-.1-.3-.1-.3 0-.2 0-.2c0-.2.3-.4.7-.6.2 0 .5 0 .7 0 .2-.2.5-.3 1-.3.4 0 .8.1 1 .2.2-.1.5-.2 1-.2.4 0 .8.1 1 .3.2 0 .4 0 .7 0 .4.1.8.3.7.6 0 0 0 .1 0 .2s-.1.3-.1.3l-.2.1-.2.2-.2.1s-.1 0-.2 0c-.1-.1-.2-.2-.2-.2s-.2.1-.4.1c-.1 0-.3-.3-.3-.3s-.2.2-.4.2-.3-.2-.3-.2-.2.2-.4.2c-.4-.1-.6-.3-.6-.3z" fill="#EB181E" stroke-width=".054"/><path d="M99.8 46.5c0-.4.2-.7.4-.7s.4.3.4.7c0 .3-.2.6-.4.6s-.4-.3-.4-.6zm.3 0c0-.3.1-.6.2-.6s.2.3.2.6-.1.6-.2.6c-.1-.1-.2-.3-.2-.6zm-2.1 2.6c0-.2-.2-.3-.2-.3.6-.2 1.5-.3 2.4-.3.9 0 1.8.1 2.4.3 0 0-.1.1-.2.3 0 .1-.1.3-.1.3-.6-.2-1.3-.3-2.2-.3-.9 0-1.7.1-2.2.3.2 0 .2-.2.1-.3zm2.3.8c.8 0 1.6-.1 1.9-.2.2 0 .3-.2.3-.3 0 0 0-.1-.1-.1-.5-.2-1.3-.3-2.1-.3s-1.7.1-2.1.3c0 0-.1 0-.1.1s.1.2.3.3c.3.1 1.2.2 1.9.2z" fill="#906229" stroke-width=".054"/><path d="M102.2 46.8c0-.1 0-.1.1-.1 0 0 .1 0 .1.1s-.1.1-.1.1c-.1 0-.1-.1-.1-.1z" fill="#fff" stroke-width=".054"/><path d="M102.1 46.2c0-.1 0-.1.1-.1s.1 0 .1.1 0 .1-.1.1c-.1.1-.1 0-.1-.1zm-.4-.3c0-.1 0-.1.1-.1s.1 0 .1.1 0 .1-.1.1-.1 0-.1-.1zm-.4-.1c0-.1.1-.1.1-.1.1 0 .2 0 .2.1s-.1.1-.2.1-.1 0-.1-.1zm-.5 0s.1-.1.1-.1c.1 0 .1.1.1.1 0 .1 0 .1-.1.1 0 0-.1 0-.1-.1z" fill="none" stroke-width=".054"/><path d="M103.5 47.7c0-.1.1-.2.1-.4 0-.5-.4-.9-.9-.9-.1 0-.3 0-.4.1" fill="none" stroke-width=".054" stroke-linecap="round"/><path d="M102 47c0-.1.1-.2.1-.3 0-.4-.4-.7-.8-.7-.2 0-.4 0-.5.1" fill="none" stroke-width=".054"/><path d="M103.7 47.3c0-.1 0-.1.1-.1s.1 0 .1.1 0 .1-.1.1-.1 0-.1-.1zm-.1-.5c0-.1 0-.1.1-.1s.1 0 .1.1 0 .1-.1.1-.1-.1-.1-.1zm-.3-.4c0-.1 0-.1.1-.1 0 0 .1 0 .1.1s-.1.1-.1.1-.1-.1-.1-.1zm-.4-.3s.1-.1.1-.1c.1 0 .2.1.2.1 0 .1-.1.1-.2.1-.1.1-.1 0-.1-.1zm-.5 0c0-.1.1-.1.1-.1.1 0 .1 0 .1.1s0 .1-.1.1c0 .1-.1 0-.1-.1z" fill="none" stroke-width=".054"/><path d="M102.7 48.4l-.2-.2s-.2.1-.4.1-.3-.3-.3-.3-.2.2-.4.2-.3-.2-.3-.2-.2.2-.4.1c-.2 0-.4-.2-.4-.2s-.2.2-.4.3c-.2 0-.4-.2-.4-.2s-.1.2-.3.2c-.2 0-.4-.2-.4-.2s-.1.2-.3.3c-.2 0-.4-.1-.4-.1s0 .1-.1.1c0 0-.1 0-.1 0v.2c.6-.2 1.4-.3 2.4-.3.9 0 1.7.1 2.4.2z" fill="#906229" stroke-width=".054"/><path d="M98.1 46.8c0-.1.1-.1.2-.1 0 0 .1 0 .1.1s-.1.1-.1.1c-.1 0-.2-.1-.2-.1z" fill="#fff" stroke-width=".054"/><path d="M98.2 46.2c0-.1.1-.1.1-.1.1 0 .1 0 .1.1s0 .1-.1.1c0 .1-.1 0-.1-.1zm.4-.3c0-.1 0-.1.1-.1s.1 0 .1.1 0 .1-.1.1-.1 0-.1-.1zm.4-.1c0-.1 0-.1.1-.1 0 0 .1 0 .1.1s-.1.1-.1.1-.1 0-.1-.1zm.5 0s0-.1.1-.1.1.1.1.1c0 .1 0 .1-.1.1s-.1 0-.1-.1z" fill="none" stroke-width=".054"/><path d="M97 47.7c0-.1-.1-.2-.1-.4 0-.5.4-.9.9-.9.1 0 .3 0 .4.1" fill="none" stroke-width=".054" stroke-linecap="round"/><path d="M98.6 47c0-.1-.1-.2-.1-.3 0-.4.4-.7.8-.7.2 0 .4 0 .5.1" fill="none" stroke-width=".054"/><path d="M96.6 47.3c0-.1.1-.1.1-.1.1 0 .1 0 .1.1s0 .1-.1.1c0 0-.1 0-.1-.1zm.1-.5c0-.1 0-.1.1-.1s.1 0 .1.1 0 .1-.1.1-.1-.1-.1-.1zm.3-.4c0-.1 0-.1.1-.1 0 0 .1 0 .1.1s-.1.1-.1.1-.1-.1-.1-.1zm.4-.3s0-.1.1-.1c0 0 .1.1.1.1 0 .1-.1.1-.1.1 0 .1-.1 0-.1-.1zm.5 0c0-.1 0-.1.1-.1s.1 0 .1.1 0 .1-.1.1c-.1.1-.1 0-.1-.1z" fill="none" stroke-width=".054"/><path d="M100.3 47.5c.1.1.1.1.1.2 0 .2.1.4.3.4.2 0 .3-.1.3-.2v-.1.1c0 .2.2.3.3.3.2 0 .4-.2.4-.4l.1-.1v.1s0 .1 0 .1c0 .2.1.3.3.3.1 0 .2 0 .3-.1l.1-.1v.1c0 .1 0 .2.1.2 0 0 .1 0 .3-.1.2-.1.2-.2.2-.2v.1s-.2.3-.3.4c-.1 0-.2.1-.3.1-.1 0-.2-.1-.2-.2-.1 0-.2 0-.2 0-.2 0-.4-.1-.4-.3-.1.1-.2.2-.4.2s-.3-.1-.4-.2c-.1.1-.2.1-.3.1-.2 0-.3-.1-.4-.2-.1.1-.2.2-.4.2-.1 0-.2 0-.3-.1-.1.1-.2.2-.4.2-.1 0-.3 0-.4-.2 0 .2-.2.3-.4.3-.1 0-.2 0-.2 0 0 .1-.1.2-.2.2s-.2 0-.3-.1c-.1-.1-.3-.4-.3-.4v-.1s.1.1.2.2c.2.1.3.1.3.1.1 0 .1-.1.1-.2v-.1l.1.1c0 .1.2.1.3.1.2 0 .3-.1.3-.3 0 0 0-.1 0-.1v-.1l.1.1c0 .2.2.4.4.4s.3-.1.3-.3v-.1.1c0 .1.2.2.3.2.2 0 .3-.2.3-.4 0 0 0-.1 0-.1l.3-.1zm0 1c-1 0-1.8.1-2.4.3 0 0-.1 0-.1-.1 0 0 0-.1 0-.1.6-.2 1.5-.3 2.4-.3 1 0 1.8.1 2.4.3 0 0 .1 0 0 .1 0 0 0 .1-.1.1-.4-.2-1.3-.3-2.2-.3z" fill="#906229" stroke-width=".054"/><path d="M99.4 48.8c0-.1.1-.1.1-.1.1 0 .1 0 .1.1s0 .1-.1.1-.1 0-.1-.1z" fill="#fff" stroke-width=".054"/><path d="M100.3 48.9h-.3s-.1 0-.1-.1c0 0 0-.1.1-.1h.7s.1 0 .1.1 0 .1-.1.1h-.4z" fill="#EB181E" stroke-width=".054"/><path d="M98.8 49h-.2s-.1 0-.1-.1c0 0 0-.1.1-.1h.4s.1 0 .1.1c0 0 0 .1-.1.1h-.2z" fill="#0D784C" stroke-width=".054"/><path d="M97.9 49.1l.1-.1h.2l-.1.2-.2-.1z" fill="#EB181E" stroke-width=".054"/><path d="M100.9 48.8c0-.1 0-.1.1-.1 0 0 .1 0 .1.1s0 .1-.1.1c0 0-.1 0-.1-.1z" fill="#fff" stroke-width=".054"/><path d="M101.8 49h.2s.1 0 .1-.1c0 0 0-.1-.1-.1h-.4s-.1 0-.1.1c0 0 0 .1.1.1h.2z" fill="#0D784C" stroke-width=".054"/><path d="M102.6 49.1l-.1-.2h-.2l.1.2h.2z" fill="#EB181E" stroke-width=".054"/><path d="M100.3 49.8c-.8 0-1.5-.1-2-.2.5-.1 1.2-.2 2-.2s1.5.1 2 .2c-.5.1-1.2.2-2 .2z" fill="#EB181E" stroke-width=".01"/><path d="M100.9 49.3v.4m-.3-.4v.4m-.3-.4v.4m-.2-.4v.4m-.3-.4v.4m-.2-.4v.4m-.2-.3v.4m-.2-.4v.4m-.2-.4v.3m-.2-.3v.2m-.2-.1v.1" fill="none" stroke-width=".054"/><path d="M100.3 49.8c-.8 0-1.5-.1-2-.2.5-.1 1.2-.2 2-.2s1.5.1 2 .2c-.5.1-1.2.2-2 .2z" fill="none" stroke-width=".054"/><path d="M102.7 48c0-.1 0-.1 0-.1s-.1 0-.1.1c0 0 0 .1 0 .1s.1 0 .1-.1zm-1.5-.3c0-.1 0-.1 0-.1s-.1 0-.1.1c0 0 0 .1 0 .1s.1 0 .1-.1zm-1.8 0c0-.1 0-.1 0-.1s.1 0 .1.1c0 0 0 .1 0 .1s-.1 0-.1-.1zm-1.5.3c0-.1 0-.1 0-.1s.1 0 .1.1c0 0 0 .1 0 .1s-.1 0-.1-.1zm2.4-1.2l-.3.2.2.4h.2l.2-.4-.3-.2zm-.6.6l.1.2.4-.1v-.1l-.4-.2-.1.2zm1.2 0l-.1.2-.4-.1-.1-.1h.1l.4-.2.1.2zm-2.4-.4l-.2.2.3.4v-.1l.1-.4-.2-.1zm-.4.7l.2.2.4-.2v-.2h-.4l-.2.2zm1.2-.2l-.1.2h-.4v-.1l.4-.2.1.1zm-1.6.3v.2h-.4v-.1l.3-.3.1.2zm.8-.2c0-.1 0-.1.1-.1s.2 0 .2.1-.1.2-.2.2-.1-.1-.1-.2zm3.5-.6l.2.2-.3.4h-.1v-.1l-.1-.4.3-.1zm.5.7l-.2.2-.4-.2v-.1l.1-.1h.4l.1.2zm-1.2-.2l.1.2h.5v-.1l-.4-.2-.2.1zm1.6.3v.2h.4v-.1l-.3-.3-.1.2zm-2.8-.4c0-.1.1-.2.2-.2s.1.1.1.2 0 .1-.1.1c-.1.1-.2 0-.2-.1zm1.7.2c0-.1.1-.1.2-.1s.1 0 .1.1 0 .2-.1.2-.2-.1-.2-.2zm-1.8-1.9c0-.2.1-.3.3-.3s.3.1.3.3c0 .2-.1.3-.3.3s-.3-.1-.3-.3zm.5-.1v.2h-.5v-.2h.2v-.4h-.2v-.2h.2v-.2h.2v.2h.2v.2h-.2v.4h.1zm.1.2h-.6s0 0 0-.1c0 0 0 0 0-.1h.2v-.2s0 0 .1 0 0 0 .1 0v.2h.2c0 .1 0 .1 0 .2 0-.1 0 0 0 0z" fill="#906229" stroke-width=".054"/><path d="M100.6 45.8h-.6m0-.2h.2v-.2m.2.1v.2h.2m-.2-.3c.1 0 .2.1.2.3 0 .2-.1.3-.3.3s-.3-.1-.3-.3c0-.1.1-.2.2-.3" fill="none" stroke-width=".054"/><path d="M97.1 48.1s-.1-.2-.2-.2-.2-.1-.2-.1.1-.1.2-.1c0 0 .1 0 .1.1v-.1s.1 0 .1.1c.1 0 0 .2 0 .3 0-.1 0-.1 0 0zm0-.1s.1 0 .2 0c0 .1.1.1 0 .2 0 0-.1 0-.2 0 0-.1 0-.2 0-.2zm6.4.1s.1-.2.2-.2.2-.1.2-.1-.1-.1-.2-.1c0 0-.1 0-.1.1v-.1s-.1 0-.1.1c-.1 0 0 .2 0 .3 0-.1-.1-.1 0 0zm0-.1s-.1 0-.2 0c0 0 0 .1 0 .2 0 0 .1 0 .2 0 0-.1 0-.2 0-.2zm-6.7 1.9h7v1.9h-7v-1.9zm6.3 3.2s0 0-.1 0h-5.3s-.1 0-.1 0c.2-.1.3-.2.3-.4s-.1-.4-.3-.4c0 0 .1 0 .2 0h5.2s.1 0 .1 0c-.2 0-.3.2-.3.4-.1.1.1.3.3.4zm-5.4 0h5.3c.2 0 .3.1.3.2s-.1.2-.3.2h-5.3c-.2 0-.3-.1-.3-.2s.1-.2.3-.2zm0-1.3h5.3c.2 0 .3.1.3.2s-.1.2-.3.2h-5.3c-.2 0-.3-.1-.3-.2s.1-.2.3-.2z" fill="#906229" stroke-width=".054"/><path d="M95.4 84.3c.5 0 .9-.1 1.2-.3.3-.2.7-.3 1.2-.3.4 0 .9.1 1.2.3.3.2.8.3 1.2.3s.9-.1 1.2-.3c.3-.2.7-.3 1.2-.3s.9.1 1.2.3c.3.2.8.3 1.2.3v.8c-.5 0-.9-.1-1.2-.3-.3-.2-.7-.2-1.2-.2-.4 0-.9.1-1.2.2-.3.2-.8.3-1.2.3s-.9-.1-1.2-.3c-.3-.2-.8-.3-1.2-.3-.5 0-.9.1-1.2.2-.3.2-.8.3-1.2.3v-.7z" fill="#17569F" stroke-width=".054"/><path d="M95.4 85.1c.5 0 .9-.1 1.2-.3.3-.2.7-.2 1.2-.2.4 0 .9.1 1.2.3.3.2.8.3 1.2.3s.9-.1 1.2-.3c.3-.2.7-.2 1.2-.2s.9.1 1.2.2c.3.2.8.3 1.2.3v.8c-.5 0-.9-.1-1.2-.3s-.7-.3-1.2-.3c-.4 0-.9.1-1.2.2-.3.2-.8.3-1.2.3s-.9-.1-1.2-.3c-.3-.2-.8-.3-1.2-.3-.5 0-.9.1-1.2.3s-.8.3-1.2.3v-.8z" fill="#B3B3B3" stroke-width=".054"/><path d="M95.4 85.9c.5 0 .9-.1 1.2-.3.3-.2.7-.3 1.2-.3.4 0 .9.1 1.2.3.3.2.8.3 1.2.3s.9-.1 1.2-.3c.3-.1.7-.2 1.2-.2s.9.1 1.2.3c.3.2.8.3 1.2.3v.8c-.5 0-.9-.1-1.2-.3-.3-.2-.7-.3-1.2-.3-.4 0-.9.1-1.2.3-.3.2-.8.3-1.2.3s-.9-.1-1.2-.3c-.3-.2-.8-.3-1.2-.3-.5 0-.9.1-1.2.3-.3.2-.8.3-1.2.3v-.9z" fill="#17569F" stroke-width=".054"/><path d="M95.4 87.5c.5 0 .9-.1 1.2-.3.3-.2.7-.3 1.2-.3.4 0 .9.1 1.2.3.3.2.8.3 1.2.3s.9-.1 1.2-.3c.3-.2.7-.2 1.2-.2s.9.1 1.2.2c.3.2.8.3 1.2.3v-.8c-.5 0-.9-.1-1.2-.3-.3-.2-.7-.3-1.2-.3-.4 0-.9.1-1.2.3-.3.2-.8.3-1.2.3s-.9-.1-1.2-.3c-.3-.2-.8-.3-1.2-.3-.5 0-.9.1-1.2.3-.3.2-.8.3-1.2.3v.8z" fill="#B3B3B3" stroke-width=".054"/><path d="M95.4 88.3c.5 0 .9-.1 1.2-.3.3-.2.7-.3 1.2-.3.4 0 .9.1 1.2.3.3.2.8.3 1.2.3s.9-.1 1.2-.3c.3-.1.7-.2 1.2-.2s.9.1 1.2.3c.3.2.8.3 1.2.3v-.8c-.5 0-.9-.1-1.2-.3-.3-.2-.7-.2-1.2-.2-.4 0-.9.1-1.2.2-.3.2-.8.3-1.2.3s-.9-.1-1.2-.3c-.3-.3-.7-.3-1.2-.3s-.9.1-1.2.3c-.3.2-.8.3-1.2.3v.7z" fill="#17569F" stroke-width=".054"/><path d="M103.1 81s0 .1 0 .2c0 .5.4.9.9.9h-7.2c.5 0 .9-.4.9-.9 0 0 0-.1 0-.2 0 0 .1 0 .1 0h5.3c-.1.1-.1 0 0 0zm-5.4-.5h5.3c.2 0 .3.1.3.2s-.1.3-.3.3h-5.3c-.2 0-.3-.1-.3-.3s.1-.2.3-.2zm-1 1.6h7.2v1.9h-7.2v-1.9z" fill="#906229" stroke-width=".054"/><path d="M104.5 73.7c.7.4 1.2.9 1.1 1.1 0 .2-.2.4-.6.6-.5.4-.8 1.1-.6 1.3-.4-.4-.7-.9-.7-1.5s.3-1.1.8-1.5z" fill="#EB181E" stroke-width=".054"/><path d="M97.8 53.9h5.1v26.3h-5.1v-26.3z" fill="#B3B3B3" stroke-width=".01"/><path d="M101.5 53.9v26.3m.5-26.3v26.3" fill="none" stroke-width=".054"/><path d="M92.6 63.8c1.1-.5 3-.9 5.2-.9.7 0 1.6.1 2.4.2 3.1.5 5.4 1.8 5.2 2.9 0 0 0 0 0 .1 0 0 1.1-2.7 1.2-2.8.2-1.2-2.4-2.6-5.8-3.2-1.1-.2-2.1-.3-3-.2-2.2 0-4.1.3-5.2.7v3.2z" fill="#EB181E" stroke-width=".01"/><path d="M102.9 67c1.4-.1 2.4-.5 2.5-1.1.1-.5-.4-1.1-1.2-1.5-.4 0-.8.1-1.3.1v2.5zm-5.1-1.9c-.9.1-1.5.4-1.9.6-.2.3.6 1.1 1.9 1.9v-2.5zm8.3 7c.1-.4-1.2-1.3-3.2-2-.9-.3-1.6-.7-2.6-1.1-2.7-1.3-4.7-2.7-4.4-3.2-.1.1-.4 2.7-.4 2.7-.2.5 1.6 1.9 4.1 3.2.8.4 2.5 1.1 3.3 1.3 1.4.5 2.8 1.5 2.7 1.9l.5-2.8z" fill="#EB181E" stroke-width=".054"/><path d="M95.8 62.5c.2-.8.4-1.5.7-2.3 0 0-.1 0-.2 0s-.1 0-.2 0c-.1.5-.3 1.1-.4 1.6-.3-.5-.6-1-.9-1.4-.1 0-.2 0-.3.1-.1 0-.2 0-.3 0 .4.6.9 1.3 1.3 1.9 0 0 .1 0 .2 0 0 .1 0 .1.1.1zm1.9-2.2c-.1 0-.2 0-.3 0-.1 0-.2 0-.2 0v2.1h1.4s0-.1 0-.1 0-.1 0-.1c-.2 0-.5 0-.9 0v-1.9zm2.2.3c.2 0 .4 0 .7.1 0 0 0-.1 0-.1s0-.1 0-.1l-1.9-.2s0 .1 0 .1 0 .1 0 .1c.2 0 .4 0 .7 0l-.2 1.9c.1 0 .2 0 .3 0 .1 0 .2 0 .3 0l.1-1.8zm.8 2.1c.1 0 .2 0 .3 0 .1 0 .2 0 .3.1l.2-1c0 .1.1.3.1.4l.4.8c.1 0 .2 0 .3 0 .1 0 .2 0 .3.1l-.1-.2c-.1-.3-.3-.7-.4-1 .4 0 .6-.1.7-.4 0-.2 0-.4-.2-.5-.1-.1-.4-.1-.6-.2l-.8-.2-.5 2.1zm1-1.8c.2 0 .5.1.5.4 0 0 0 .1 0 .1-.1.3-.3.4-.7.3l.2-.8zm2.6 2.4c0 .2 0 .4-.1.7.1 0 .2.1.3.2.1 0 .2.1.2.2l.3-2.4s-.1 0-.1-.1c0 0-.1 0-.1 0l-2 1.3s.1 0 .2.1c0 0 .1 0 .1.1.2-.2.4-.3.6-.4l.6.3zm-.6-.5l.7-.4-.1.8-.6-.4z" fill="#906229" stroke-width=".054"/><path d="M69 41.2c0-.4.3-.7.7-.7.4 0 .7.3.7.7 0 .4-.3.7-.7.7-.4 0-.7-.3-.7-.7z" fill="none" stroke-width=".054"/><path d="M76.7 35.4c2.1 0 3.9.3 5.2.8.7.3 1.6.6 2.6.7.8.1 1.5.1 2.2.1.9 0 2.1.2 3.3.8 1.1.5 1.9 1.1 2.4 1.6l-.5.4-.1 1.3-1.3 1.6-.7.6-1.6 1.3h-.8l-.2.8-10.3-1.3-10.4 1.3-.2-.8h-.8l-1.6-1.3-.7-.6-1.3-1.6-.2-1.3-.5-.4c.6-.6 1.4-1.1 2.4-1.6 1.2-.6 2.5-.9 3.3-.8.7 0 1.4 0 2.2-.1 1-.1 2-.4 2.6-.7 1.1-.5 2.9-.8 5-.8z" fill="#EB181E" stroke-width=".01"/><path d="M76.8 46.4c-3.9 0-7.4.5-9.9 1.3.2-.1.2-.4 0-1.1-.3-.9-.8-.8-.8-.8 2.7-.9 6.5-1.4 10.7-1.4 4.2 0 8 .5 10.7 1.4 0 0-.5 0-.8.8-.2.7-.2 1 0 1.1-2.4-.7-6-1.3-9.9-1.3zm0-1.9c-4.2 0-8 .5-10.7 1.4-.2 0-.4 0-.4-.2-.1-.2 0-.4.2-.4 2.7-.9 6.6-1.4 11-1.4 4.3 0 8.2.6 11 1.4.2 0 .3.3.2.4 0 .2-.2.2-.4.2-2.8-.8-6.7-1.4-10.9-1.4z" fill="#906229" stroke-width=".054"/><path d="M76.8 49.8c-3.9 0-7.3-.5-9.8-1.3-.2 0-.2-.2-.2-.4s.1-.3.2-.4c2.5-.8 5.9-1.2 9.8-1.3 3.8 0 7.3.5 9.8 1.3.2 0 .3.2.2.4 0 .2 0 .4-.2.4-2.5.8-5.9 1.3-9.8 1.3z" fill="#BA9914" stroke-width=".01"/><path d="M76.8 49.8c-3.9 0-7.3-.5-9.8-1.3-.2 0-.2-.2-.2-.4s.1-.3.2-.4c2.5-.8 5.9-1.2 9.8-1.3 3.8 0 7.3.5 9.8 1.3.2 0 .2.2.2.4s0 .4-.2.4c-2.5.8-5.9 1.3-9.8 1.3z" fill="#906229" stroke-width=".054"/><path d="M76.8 49.2c-3.5 0-6.6-.4-9-1.1 2.4-.7 5.5-1.1 9-1.1s6.6.4 9 1.1c-2.3.7-5.5 1.1-9 1.1z" fill="#EB181E" stroke-width=".01"/><path d="M76.8 49.2c-3.5 0-6.6-.4-9-1.1 2.4-.7 5.5-1.1 9-1.1s6.6.4 9 1.1c-2.3.7-5.5 1.1-9 1.1z" fill="none" stroke-width=".054"/><path d="M73.8 45.5c0-.2.1-.3.3-.3.2 0 .3.1.3.3 0 .2-.1.3-.3.3-.2 0-.3-.1-.3-.3z" fill="#fff" stroke-width=".054"/><path d="M76.8 45.8h-1.1c-.2 0-.3-.2-.3-.4s.1-.3.3-.3h2.1c.2 0 .3.2.3.3 0 .2-.1.4-.3.4h-1z" fill="#EB181E" stroke-width=".054"/><path d="M71.6 46.1l-.7.1c-.2 0-.4-.1-.4-.3 0-.2.1-.4.3-.4l.8-.1.8-.1c.2 0 .4.1.4.3 0 .2-.1.4-.3.4l-.9.1z" fill="#0D784C" stroke-width=".054"/><path d="M68.6 46.1c0-.2.1-.4.3-.4.2 0 .3.2.3.4s-.1.3-.3.3c-.2.1-.3-.1-.3-.3z" fill="#fff" stroke-width=".054"/><path d="M66.3 46.8l.4-.6 1.1.2-.9.6-.6-.2z" fill="#EB181E" stroke-width=".054"/><path d="M82 46.1l.7.1c.2 0 .4-.1.4-.3s-.1-.4-.3-.4l-.7-.1-.8-.1c-.2 0-.4.1-.4.3 0 .2.1.4.3.4l.8.1z" fill="#0D784C" stroke-width=".054"/><path d="M79.2 45.5c0-.2.2-.3.4-.3s.3.1.3.3c0 .2-.2.3-.3.3-.3.1-.4-.1-.4-.3zm5.1.6c0-.2.2-.4.4-.4s.3.2.3.4-.2.3-.3.3c-.2.1-.4-.1-.4-.3z" fill="#fff" stroke-width=".054"/><path d="M87.3 46.8l-.3-.6-1.1.2.9.6.5-.2z" fill="#EB181E" stroke-width=".054"/><path d="M67.4 48.3c2.4-.7 5.7-1.2 9.4-1.2s7 .4 9.4 1.2" fill="none" stroke-width=".054"/><path d="M69 38.3l.4.4.7-1.1c-.7-.4-1.2-1.2-1.2-2.2 0-.1 0-.2 0-.3.1-1.4 1.8-2.6 3.8-2.6 1.1 0 2.1.3 2.8.8 0-.2 0-.4 0-.6-.8-.5-1.8-.8-2.8-.8-2.4 0-4.3 1.5-4.4 3.2 0 .1 0 .2 0 .3 0 .9.4 1.7 1.1 2.4l-.4.5zm.1 0c-.8-.6-1.3-1.5-1.3-2.5 0-1.1.7-2.1 1.8-2.8-.7.6-1.1 1.3-1.1 2.1 0 .1 0 .2 0 .3 0 .9.4 1.7 1.1 2.4l-.5.5zm-7.3 1.1c-.5-.6-.8-1.3-.8-2 0-.5.1-.9.3-1.3.7-1.4 2.8-2.5 5.3-2.5.7 0 1.3.1 1.9.2-.1.2-.2.3-.3.5-.5-.1-1-.2-1.6-.2-2.3 0-4.2.9-4.7 2.2-.2.3-.2.7-.2 1.1 0 .8.4 1.5.9 1.9l-.9 1.4-.4-.4.5-.9zm.8-4.8c-.6.4-1 .9-1.3 1.4-.2.4-.3.9-.3 1.3 0 .8.3 1.5.8 2l-.5.9c-.5-.6-.8-1.4-.8-2.2 0-1.3.8-2.6 2.1-3.4zm14.2-3c.5 0 1 .4 1.1.9.1.4.1 1 .1 1.5 0 0 0 .1 0 .2 0 0 0 .1 0 .2 0 1.1.2 2.2.4 2.8l-1.7 1.7-1.7-1.7c.2-.6.4-1.7.4-2.8 0-.1 0-.1 0-.2s0-.1 0-.2c0-.6 0-1.1.1-1.5.2-.5.7-.9 1.3-.9zm0 .6c.3 0 .5.2.6.4.1.4.1.9.1 1.5 0 0 0 .1 0 .1s0 .1 0 .2c0 1.1.2 2.1.4 2.7l-1.1 1.1-1.1-1.1c.2-.6.4-1.6.4-2.7 0 0 0-.1 0-.2s0-.1 0-.1c0-.5 0-1.1.1-1.5 0-.3.3-.4.6-.4zm7.7 6.1l-.4.4-.7-1.1c.7-.4 1.2-1.2 1.2-2.2 0-.1 0-.2 0-.3 0-1.4-1.7-2.6-3.8-2.6-1.1 0-2.1.3-2.8.8 0-.2 0-.4 0-.6.8-.5 1.8-.8 2.8-.8 2.4 0 4.4 1.5 4.4 3.2 0 .1 0 .2 0 .3 0 .9-.4 1.7-1 2.4l.3.5zm0-.1c.8-.6 1.3-1.5 1.3-2.5 0-1.1-.7-2.2-1.8-2.8.7.6 1.1 1.3 1.1 2.1 0 .1 0 .2 0 .3 0 .9-.4 1.7-1 2.4l.4.5zm7.3 1.2c.4-.6.8-1.3.8-2 0-.5-.1-.9-.3-1.3-.7-1.4-2.8-2.5-5.3-2.5-.7 0-1.3.1-2 .2.1.2.2.3.4.5.5-.1 1-.2 1.6-.2 2.3 0 4.2.9 4.7 2.2.1.3.2.7.2 1.1 0 .8-.3 1.5-.9 1.9l.8 1.4.4-.4-.4-.9zm-.8-4.7c.6.4 1 .9 1.3 1.4.2.4.3.9.3 1.3 0 .8-.3 1.5-.8 2l.5.9c.5-.7.8-1.4.8-2.2 0-1.4-.8-2.6-2.1-3.4z" fill="#906229" stroke-width=".054"/><path d="M76.9 36.8" fill="none" stroke-width=".054"/><path d="M76.2 37.5c0-.3.3-.6.6-.6s.6.2.6.6c0 .3-.3.6-.6.6-.3-.1-.6-.3-.6-.6zm0-1.2c0-.3.3-.6.6-.6s.6.3.6.6-.3.6-.6.6-.6-.3-.6-.6zm.1-1.3c0-.3.2-.5.5-.5.2 0 .5.2.5.5 0 .2-.2.4-.5.4-.3.1-.5-.1-.5-.4zm.1-1.1c0-.2.2-.3.4-.3s.3.1.3.3c0 .2-.2.3-.3.3-.2 0-.4-.1-.4-.3zm.1-1c0-.1.1-.3.3-.3.1 0 .2.1.2.3 0 .1-.1.3-.2.3-.2 0-.3-.2-.3-.3z" fill="#fff" stroke-width=".054"/><path d="M76.8 41l.4.1c0 .2-.1.3-.1.5 0 .9.7 1.5 1.5 1.5.7 0 1.3-.4 1.5-1.1 0 0 .2-.6.2-.5 0 0 0 .6 0 .6.1.8.8 1.3 1.5 1.3.9 0 1.5-.7 1.5-1.5 0 0 0-.1 0-.2l.5-.5.2.6c-.1.2-.1.4-.1.7 0 .8.7 1.5 1.5 1.5.5 0 1-.2 1.2-.6l.3-.4v.5c0 .5.2 1 .7 1.1 0 0 .5 0 1.3-.6.7-.6 1.1-1.1 1.1-1.1l.1.6s-.6 1-1.3 1.4c-.3.2-.9.4-1.3.4s-.8-.4-.9-.9c-.3.2-.7.3-1.1.3-.9 0-1.7-.5-2-1.3-.4.5-1 .8-1.6.8-.7 0-1.3-.3-1.8-.9-.4.4-1 .6-1.5.6-.8 0-1.5-.4-1.9-1-.4.6-1.1 1-1.9 1-.6 0-1.1-.2-1.5-.6-.4.5-1.1.9-1.8.9s-1.2-.3-1.6-.8c-.3.8-1.1 1.3-2 1.3-.4 0-.8-.1-1.1-.3-.2.4-.5.9-1 .9-.4.1-1-.1-1.3-.4-.7-.4-1.2-1.4-1.2-1.4v-.6s.4.5 1.1 1.1c.7.6 1.3.6 1.3.6.5-.1.7-.5.7-1.1v-.5l.3.4c.3.4.7.6 1.2.6.8 0 1.5-.6 1.5-1.5 0-.2 0-.5-.1-.7l.2-.6.5.5s0 .1 0 .2c0 .9.7 1.5 1.5 1.5.7 0 1.4-.5 1.5-1.3 0 0 0-.6 0-.6.1 0 .2.6.2.5.2.6.8 1.1 1.5 1.1.9 0 1.5-.7 1.5-1.5 0-.2 0-.4-.1-.5l.7-.1z" fill="#BA9914" stroke-width=".01"/><path d="M76.8 41l.4.1c0 .2-.1.3-.1.5 0 .9.7 1.5 1.5 1.5.7 0 1.3-.4 1.5-1.1 0 0 .2-.6.2-.5 0 0 0 .6 0 .6.1.8.8 1.3 1.5 1.3.9 0 1.5-.7 1.5-1.5 0 0 0-.1 0-.2l.5-.5.2.6c-.1.2-.1.4-.1.7 0 .8.7 1.5 1.5 1.5.5 0 1-.2 1.2-.6l.3-.4v.5c0 .5.2 1 .7 1.1 0 0 .5 0 1.3-.6.7-.6 1.1-1.1 1.1-1.1l.1.6s-.6 1-1.3 1.4c-.3.2-.9.4-1.3.4s-.8-.4-.9-.9c-.3.2-.7.3-1.1.3-.9 0-1.7-.5-2-1.3-.4.5-1 .8-1.6.8-.7 0-1.3-.3-1.8-.9-.4.4-1 .6-1.5.6-.8 0-1.5-.4-1.9-1-.4.6-1.1 1-1.9 1-.6 0-1.1-.2-1.5-.6-.4.5-1.1.9-1.8.9s-1.2-.3-1.6-.8c-.3.8-1.1 1.3-2 1.3-.4 0-.8-.1-1.1-.3-.2.4-.5.9-1 .9-.4.1-1-.1-1.3-.4-.7-.4-1.2-1.4-1.2-1.4v-.6s.4.5 1.1 1.1c.7.6 1.3.6 1.3.6.5-.1.7-.5.7-1.1v-.5l.3.4c.3.4.7.6 1.2.6.8 0 1.5-.6 1.5-1.5 0-.2 0-.5-.1-.7l.2-.6.5.5s0 .1 0 .2c0 .9.7 1.5 1.5 1.5.7 0 1.4-.5 1.5-1.3 0 0 0-.6 0-.6.1 0 .2.6.2.5.2.6.8 1.1 1.5 1.1.9 0 1.5-.7 1.5-1.5 0-.2 0-.4-.1-.5l.7-.1z" fill="#906229" stroke-width=".054"/><path d="M87.4 43.1c.1-.3 0-.6-.2-.6s-.4.1-.5.4c-.1.2 0 .5.2.6.2 0 .4-.2.5-.4zm-6.7-1.4c0-.3-.1-.5-.3-.6-.2 0-.4.2-.4.5s.1.5.3.6c.2 0 .4-.2.4-.5zm-7.8 0c0-.3.1-.5.3-.6.2 0 .4.2.4.5s-.1.5-.3.6c-.1 0-.3-.2-.4-.5zm-6.7 1.4c-.1-.3 0-.6.2-.6s.4.1.5.4c.1.2 0 .5-.2.6-.2 0-.4-.2-.5-.4z" fill="#fff" stroke-width=".054"/><path d="M69.1 38.4c.3.2.6.6.7 1 0 0 0-.1.2-.2s.3-.1.3-.1 0 .3-.1.4c0 .1 0 .4-.1.8-.1.3-.2.6-.2.6-.1-.1-.3-.2-.5-.1-.2 0-.3.2-.4.3 0 0-.2-.2-.4-.4-.2-.3-.3-.6-.4-.7 0-.1-.2-.4-.2-.4s.1 0 .4 0c.2 0 .3.1.3.1.1-.6.2-1.1.4-1.3zm.2 3.3c-.1-.1-.2-.2-.2-.4 0-.1 0-.3 0-.4 0 0-.3-.2-.6-.2-.2 0-.6 0-.8 0-.1 0-.3 0-.3 0s0 0 .1.2.1.2.1.2c-.4.1-.7.4-.9.7.3.2.7.4 1.1.3 0 0 0 .1-.1.3 0 .1 0 .2 0 .2s.2-.1.3-.1c.1 0 .5-.2.7-.3.4-.3.6-.5.6-.5zm.9-.1c0-.1.1-.2.1-.4 0-.1-.1-.3-.2-.4 0 0 .2-.2.5-.4.2-.1.6-.2.7-.3.1 0 .3-.1.3-.1s0 .1 0 .2c0 .2 0 .3 0 .3.4 0 .8.1 1.1.3-.2.3-.6.6-1 .7 0 0 0 .1.1.2s.1.2.1.2-.2 0-.4 0c-.1 0-.5 0-.8-.1-.3-.1-.5-.2-.5-.2z" fill="#906229" stroke-width=".054"/><path d="M69 41.2c0-.4.3-.7.7-.7.4 0 .7.3.7.7 0 .4-.3.7-.7.7-.4 0-.7-.3-.7-.7z" fill="#EB181E" stroke-width=".054"/><path d="M76.8 37.3c.3.3.6.8.6 1.3 0 0 0-.1.3-.2s.4 0 .4 0-.1.3-.2.5c0 .1-.1.5-.2.8-.1.3-.3.6-.3.6-.2-.2-.4-.3-.6-.3-.2 0-.4.1-.5.2 0 0-.2-.2-.3-.6-.1-.3-.2-.7-.2-.8 0-.1-.2-.5-.2-.5s.2 0 .4 0 .3.2.3.2c-.1-.5.2-1 .5-1.2zm-.5 3.7c-.1-.1-.1-.3-.1-.4s0-.3.1-.4c0 0-.3-.2-.6-.4-.2-.1-.7-.2-.8-.2s-.4-.1-.4-.1 0 0 0 .2.1.3.1.3c-.5 0-.9.2-1.2.6.3.3.7.6 1.2.6 0 0-.1.1-.1.3 0 .1 0 .2 0 .2s.2 0 .4-.1c.1 0 .6-.1.8-.2.3-.1.6-.4.6-.4zm1 0c.1-.1.2-.3.2-.4s0-.3-.2-.4c0 0 .3-.2.6-.4.2-.1.7-.2.8-.2s.4-.1.4-.1 0 0 0 .2-.1.3-.1.3c.4 0 .9.2 1.2.6-.3.3-.7.6-1.2.6 0 0 0 .1.1.3 0 .1 0 .2 0 .2s-.2 0-.4-.1-.6-.1-.8-.2c-.3-.1-.6-.4-.6-.4zm7.2-2.6c-.3.2-.6.6-.7 1 0 0 0-.1-.2-.2-.2-.2-.4-.2-.4-.2s0 .3.1.4c0 .1 0 .4.1.8 0 .3.2.6.2.6.1-.1.3-.2.5-.1.2 0 .3.2.4.3 0 0 .2-.2.4-.4.2-.3.3-.6.4-.7s.2-.4.2-.4-.1 0-.4 0c-.2 0-.2.1-.2.1 0-.5-.2-1-.4-1.2zm-.1 3.3c.1-.1.2-.2.2-.4 0-.1 0-.3-.1-.4 0 0 .3-.2.6-.2.2 0 .7 0 .8 0s.4 0 .4 0 0 0-.1.2c-.2.1-.2.2-.2.2.4.1.7.4 1 .7-.3.2-.7.4-1.1.3 0 0 0 .1 0 .3 0 .1 0 .2 0 .2s-.2-.1-.3-.1c-.1 0-.5-.2-.7-.3-.3-.3-.5-.5-.5-.5zm-.9-.1c0-.1-.1-.2 0-.4 0-.1.1-.3.2-.4 0 0-.2-.2-.4-.4-.2-.1-.6-.2-.7-.3-.1 0-.3-.1-.3-.1s0 .1 0 .2c0 .2.1.3.1.3-.4 0-.9.1-1.1.3.2.3.6.6 1 .7 0 0 0 .1-.1.2s-.1.2-.1.2.2 0 .3 0c.1 0 .5 0 .8-.1 0-.1.3-.2.3-.2z" fill="#906229" stroke-width=".054"/><path d="M83.3 41.2c0-.4.3-.7.7-.7.4 0 .7.3.7.7 0 .4-.3.7-.7.7-.4 0-.7-.3-.7-.7zm7.6 1.5c-.2-.2-.5-.1-.7.1s-.3.5-.2.7c.2.2.5.1.7-.1.3-.1.4-.5.2-.7z" fill="#EB181E" stroke-width=".054"/><path d="M90 43.2c0-.1.1-.2.2-.3.2-.2.6-.2.7-.1 0 0 0 0 0 .1 0 0 .3-.7.8-.9.4-.2 1.1-.2 1.1-.2 0-.5-.4-1-1-1-.3 0-.6.1-.8.4v-.4s-.4.1-.6.6c-.2.5 0 1.3 0 1.3s-.1-.3-.3-.5c-.1-.2-.6-.4-.8-.6-.2-.1-.4-.2-.4-.2s0 0 0 .2 0 .3 0 .3c-.4 0-.9 0-1.2.1.2.3.4.6.8.8 0 0-.1.1-.2.2s-.1.2-.1.2.3 0 .4 0c.1 0 .6.1.8.1.2-.1.4-.1.6-.1z" fill="#906229" stroke-width=".054"/><path d="M62.7 42.7c.2-.2.5-.1.7.1.2.2.3.5.2.7-.2.2-.5.1-.7-.1-.3-.1-.3-.5-.2-.7z" fill="#EB181E" stroke-width=".054"/><path d="M63.7 43.2c0-.1-.1-.2-.2-.3-.2-.2-.6-.2-.7-.1 0 0 0 0 0 .1 0 0-.3-.7-.8-.9-.4-.2-1.1-.2-1.1-.2 0-.5.4-1 1-1 .3 0 .6.1.8.4l.1-.4s.4.1.6.6c.2.5 0 1.3 0 1.3s.1-.3.3-.5c.1-.2.6-.4.8-.6.2-.1.4-.2.4-.2s0 0 0 .2 0 .3 0 .3c.4 0 .9 0 1.2.1-.2.3-.4.6-.8.8 0 0 .1.1.2.2s.1.2.1.2-.3 0-.4 0c-.1 0-.6.1-.9.1-.2-.1-.5-.1-.6-.1z" fill="#906229" stroke-width=".054"/><path d="M76.1 40.6c0-.4.3-.7.7-.7.4 0 .7.3.7.7 0 .4-.3.7-.7.7-.4 0-.7-.3-.7-.7z" fill="#EB181E" stroke-width=".054"/><path d="M78.1 30.9h-2.6m-.1-.8h1v-1.1m.8-.1v1.1h1m-1-1.1c.6.2 1 .7 1 1.3 0 .8-.6 1.4-1.4 1.4-.8 0-1.4-.6-1.4-1.4 0-.6.4-1.2 1.1-1.3" fill="none" stroke-width=".054"/><path d="M77 88.8c-4.1 0-8.2-1.1-11.6-2.8-2.5-1.3-4.2-4-4.2-7v-11h31.5v11c0 3-1.7 5.7-4.2 7-3.4 1.8-7.5 2.8-11.5 2.8zm-.2-39.3h15.8v18.4h-15.8v-18.4z" fill="#B3B3B3" stroke-width=".054"/><path d="M61.1 49.5h15.8v18.4h-15.8v-18.4z" fill="#EB181E" stroke-width=".054"/><path d="M76.9 79c0 4.3-3.5 7.9-7.9 7.9s-7.9-3.5-7.9-7.9v-11h15.8v11z" fill="#EB181E" stroke-width=".01"/><path d="M66.4 67.9v18.5c-.7-.2-1.3-.5-1.8-.9v-17.6h1.8z" fill="#906229" stroke-width=".01"/><path d="M66.4 67.9v18.5m-1.9-.9v-17.6" fill="none" stroke-width=".054"/><path d="M62.9 67.9v16c-1.1-1.3-1.8-3.1-1.8-4.9v-11l1.8-.1z" fill="#906229" stroke-width=".01"/><path d="M62.9 67.9v16" fill="none" stroke-width=".054"/><path d="M69.9 67.9v18.9c-.3 0-.6 0-.9 0-.3 0-.7 0-1 0v-18.9h1.9z" fill="#906229" stroke-width=".01"/><path d="M69.9 67.9v18.9m-1.9 0v-18.9" fill="none" stroke-width=".054"/><path d="M73.4 67.9v17.6c-.6.4-1.2.7-1.8.9v-18.5h1.8z" fill="#906229" stroke-width=".01"/><path d="M73.4 67.9v17.6m-1.8.9v-18.5" fill="none" stroke-width=".054"/><path d="M75.1 84v-16h1.8v11c0 1.9-.7 3.6-1.8 5z" fill="#906229" stroke-width=".01"/><path d="M75.1 84v-16" fill="none" stroke-width=".054"/><path d="M76.9 79c0 4.3-3.5 7.9-7.9 7.9s-7.9-3.5-7.9-7.9v-11h15.8v11z" fill="none" stroke-width=".054"/><path d="M92.7 67.9v11c0 4.3-3.5 7.9-7.9 7.9s-7.9-3.5-7.9-7.9v-11h15.8z" fill="#EB181E" stroke-width=".054"/><path d="M85.5 83.9c.4-.1.8-.2 1.2-.4l.3.5c-.4.2-.9.3-1.4.4-.1.4-.4.7-.9.7-.4 0-.7-.3-.8-.7-.5-.1-1.1-.2-1.5-.4l.2-.5c.4.2.9.3 1.3.4.1-.2.2-.4.5-.5v-2.3h.5v2.3c.3.1.5.3.6.5zm-1.1.3c0 .2.2.4.4.4s.4-.2.4-.4-.1-.4-.4-.4c-.3.1-.4.2-.4.4zm-.4-7.3s0-.1 0-.1h-1.4v-.5h1.3s0-.1 0-.1l-1.6-1.9.4-.3 1.6 1.9s0 0 .1 0v-2.5h.6v2.5s0 0 .1 0l1.6-1.9.4.3-1.6 1.7s.1.1.1.2h1.3v.5h-1.3s0 .1-.1.2l1.5 1.8-.4.3-1.5-1.8s0 0-.1 0v3h-.5v-3l-1.6 1.8-.4-.3 1.5-1.8zm-4.2-5.8l2 2.3.4-.3-2-2.4s0-.1.1-.2h1.4v-.5h-1.4c-.1-.3-.4-.6-.8-.6-.5 0-.9.4-.9.9 0 .4.2.7.6.8v1.8h.5l.1-1.8c-.1.1 0 0 0 0zm-.7-.8c0-.2.2-.4.4-.4s.4.2.4.4-.2.4-.4.4-.4-.1-.4-.4zm2.8 12.8l-.2.5c-.4-.3-.9-.6-1.2-1.1-.3.1-.6 0-.8-.2-.4-.3-.4-.9-.1-1.2-.2-.5-.4-1.1-.4-1.6h.5c0 .5.2 1 .4 1.4.1 0 .3 0 .4 0l1.3-1.6.4.3-1.3 1.6c.2.3.2.7 0 1 .3.3.6.7 1 .9zm-2-1.6c-.1.1-.1.4 0 .5.2.1.4.1.5 0 .1-.1.1-.4 0-.5-.1-.2-.3-.2-.5 0zm-.7-2.9v-1.3c-.3-.1-.6-.4-.6-.8s.2-.7.6-.9v-1.8h.5v1.8c.2.1.4.3.5.6h1.4v.5h-1.4c-.1.2-.3.4-.5.5v1.3l-.5.1zm-.1-2.2c0 .2.2.4.4.4s.4-.2.4-.4-.2-.4-.4-.4-.4.2-.4.4zm.1 3.5l-.6-.1-.1-1.5.6-.2v.9c.1.3.1.6.1.9zm.5-1.8l.5.1s0 1 0 .8c0-.2 0 .7 0 .7l-.5.2c0-.3-.1-.6-.1-.9l.1-.9zm1.8 4.7c.5.4 1 .7 1.6.9l.1-.6c-.5-.2-.9-.4-1.3-.7l-.4.4zm-.2.5c.5.4 1 .7 1.6.9l-.4.4c-.4-.2-.9-.4-1.3-.7l.1-.6zm.7-3.2l.5.2 1-1.1-.3-.5-1.2 1.4zm-.4-.4l-.3-.5.9-1.1.5.2-1.1 1.4zm5.9 3.4l.2.5c.4-.3.9-.6 1.2-1.1.3.1.6 0 .8-.2.4-.3.4-.9.1-1.2.2-.5.4-1.1.4-1.6h-.5c0 .5-.2 1-.4 1.4-.1 0-.3 0-.4 0l-1.3-1.6-.4.3 1.3 1.6c-.2.3-.2.7 0 1-.3.3-.6.7-1 .9zm2-1.6c.1.1.1.4 0 .5-.2.1-.4.1-.5 0-.1-.1-.1-.4 0-.5.1-.2.3-.2.5 0zm.7-2.9v-1.3c.4-.1.6-.4.6-.8s-.3-.7-.6-.9v-1.8h-.5v1.8c-.2.1-.4.3-.5.6h-1.4v.5h1.4c.1.2.3.4.5.5v1.3l.5.1zm-.6-2.2c0-.2.2-.4.4-.4s.4.1.4.4c0 .2-.2.4-.4.4s-.4-.1-.4-.4zm.6 3.5l.6-.1.1-1.5-.6-.2v.9c-.1.3-.1.6-.1.9zm-.5-1.8l-.5.1s0 1 0 .8c0-.2 0 .7 0 .7l.6.2c0-.3 0-.6 0-.9v-.9h-.1zm.5-7v1.8h-.5v-1.8s0 0-.1 0l-2 2.4-.4-.3 2-2.4s0-.1 0-.1h-1.4v-.6h1.4c.1-.3.4-.6.8-.6.5 0 .9.4.9.9-.1.3-.3.7-.7.7zm-.6-.8c0 .2.2.4.4.4s.4-.1.4-.4c0-.2-.2-.4-.4-.4-.2.1-.4.2-.4.4zm-4.6.8v1.1h-.5v-1.1c-.2-.1-.5-.3-.6-.6h-1.3v-.5h1.3c.1-.3.4-.6.8-.6s.7.2.8.6h1.3v.5h-1.3c-.1.4-.3.6-.5.6zm-.7-.8c0 .2.2.4.4.4s.4-.1.4-.4c0-.2-.2-.4-.4-.4s-.4.2-.4.4zm3.6 12.5c-.5.4-1 .7-1.6.9l-.1-.6c.5-.2.9-.4 1.3-.7l.4.4zm.3.5c-.4.4-1 .7-1.6.9l.4.4c.4-.2.9-.4 1.3-.7l-.1-.6zm-9-10.8l-.6.2v1.5l.6.2v-1.9zm.5 0l.6.2v1.5l-.6.2v-1.9zm10 0l-.5.2v1.5l.5.2v-1.9zm.5 0l.6.2v1.5l-.6.2v-1.9zm-2.8 7.6l-.5.2-.9-1.1.3-.5 1.1 1.4zm.4-.4l.3-.5-1-1.1-.5.2 1.2 1.4zm-5.9-6.9l.5-.2 1 1.1-.4.4-1.1-1.3zm-.5.3l-.3.5.9 1.1.6-.2-1.2-1.4zm6.1-.3l-.5-.3-1 1.2.3.5 1.2-1.4zm.4.3l.3.5-1 1.1-.5-.2 1.2-1.4zm-6.6 3.1l.2-.6h1.5l.2.6h-1.9zm0 .5l.2.5h1.5l.2-.5h-1.9zm1.7-6.1l-.1.6h-1.5l-.2-.6h1.8zm0-.5l-.1-.6h-1.5l-.2.6h1.8zm5.2 6.1l-.2-.6h-1.5l-.2.6h1.9zm0 .5l-.2.6h-1.5l-.2-.5h1.9zm-3.2 4.9l.6-.2v-1.5l-.6-.1v1.8zm-.5 0l-.5-.2v-1.5l.5-.2v1.9zm1.9-11l.1.6h1.5l.2-.6h-1.8zm0-.5l.1-.6h1.5l.2.6h-1.8zm-1.9 1.7l-.5.2v1.5l.5.2v-1.9zm.5 0l.6.2v1.5l-.6.1v-1.8z" fill="#906229" stroke-width=".01"/><path d="M83.9 76.4c0-.5.4-.9.9-.9s.9.4.9.9-.4.9-.9.9-.9-.4-.9-.9z" fill="#0D784C" stroke-width=".01"/><path d="M84.9 54.1v-.30000000000000004s-.5 0-.8 0c-.2-.1-.5-.2-.8-.4-.1-.3-.2-.4-.3-.4-.4-.1-.8.1-.8.1s.3.1.6.4.5.4.6.5c.2 0 .8 0 1 0 .1 0 .5.1.5.1z" fill="#EB181E" stroke-width=".054"/><path d="M87.3 53.3s0 .2 0 .5-.1.4 0 .5c0 .1 0 .2.1.3 0 .1 0 .3 0 .3s-.1-.1-.2-.2-.2-.1-.2-.1 0 .2 0 .3c0 .1 0 .3.1.4.1.1.3.3.3.4 0 .1 0 .4 0 .4s0-.1-.1-.1-.4-.2-.4-.2.2.2.2.5c0 .2-.1.5-.1.5s-.1-.2-.2-.4c-.2-.1-.4-.3-.4-.3s.2.4.2.6c0 .2 0 .8 0 .8s-.1-.2-.2-.3c-.1-.1-.2-.2-.3-.3 0 0 .1.2.2.4 0 .2.1.8.6 1.5.3.4.8 1.3 1.8 1 1-.2.6-1.6.4-2.3s-.3-1.3-.3-1.6c0-.2.2-1 .1-1.1 0-.1 0-.7 0-1.1.1-.4.2-.6.3-.8 0-.2.1-.3.1-.4 0-.1 0-.4 0-.4s.2.4.2.5c0 .1 0 .5 0 .5s0-.4.3-.6.6-.4.7-.5c.1-.1.1-.2.1-.2s0 .6-.2.9c-.1.2-.6.7-.6.7s.2-.1.4-.1c.1 0 .2 0 .2 0s-.2.2-.4.6c-.2.4-.2.4-.3.7-.2.3-.3.3-.6.5-.3.3-.1 1.4-.1 1.6 0 .2.7 1.6.7 1.9s0 1.1-.5 1.6c-.4.3-1 .3-1.1.4-.1.1-.4.4-.4 1s.2.7.4.9c.1.1.4 0 .4.2 0 .1.1.2.1.2s.1.1.1.3c0 .1-.3.4-.4.6-.1.2-.3.8-.3.8 0 .1 0 .3 0 .4 0 0 .3.4.1.4-.1 0-.2-.1-.3 0-.2 0-.3.2-.3.1-.1 0-.1-.1-.1-.2s0-.2 0-.2-.1 0-.1.1 0 .3-.1.3-.2-.2-.2-.2c-.1 0-.3 0-.3-.1s.1-.3.2-.3.2-.1.2-.2c-.1 0-.1 0-.2 0-.1.1-.2 0-.2-.1s0-.2 0-.3-.1-.2 0-.3c.2-.1.2.1.4 0 .2 0 .3-.1.3-.2s0-.4 0-.5c-.1-.1-.2-.2-.3-.2 0-.1-.1-.3-.1-.3s0 .4 0 .4 0 .3 0 .3-.1-.1-.2-.2-.2-.4-.2-.4 0 .3 0 .4c0 .1.1.2.1.3 0 0-.3-.2-.3-.3 0 0-.2-.2-.3-.4s-.1-.4-.2-.4c0-.1 0-.4 0-.5 0-.1.1-.4.1-.4s-.2 0-.4 0-.4-.1-.5.1c-.1.2 0 .5.1 1 .1.4.2.6.1.7 0 .1-.2.2-.2.3 0 0-.2 0-.3 0 0 0-.2-.1-.4-.1s-.3 0-.4 0c-.1 0-.3-.1-.4-.1s-.2.1-.2.2c0 .2-.1.2-.2.2s-.2 0-.3-.1c-.1 0-.3 0-.2-.1 0-.1 0-.1.1-.2 0-.1.1-.2 0-.2s-.2 0-.2 0-.2.2-.2.1c0 0-.1-.1-.1-.4 0-.2-.2-.4 0-.4s.4.2.5 0 0-.2-.1-.2c-.1-.1-.2-.1-.1-.2s.2-.1.2-.2c.1-.1.1-.2.2-.2.2.1 0 .2.2.4s.3.3.7.3c.3 0 .4-.1.4-.2s0-.3 0-.3c0-.1 0-.3 0-.3s-.3.1-.3.3c0 .1-.1.2-.1.2s0-.2 0-.4c0-.1 0-.2 0-.3 0-.1-.1-.3-.1-.3s0 .2-.1.3c0 0 0 .4 0 .4s-.2-.2-.1-.5c0-.2 0-.6 0-.7.1-.1.2-.5.7-.6.4 0 .7 0 .9 0 .1 0 .7-.1.7-.1s-.9-.5-1.1-.7c-.2-.1-.5-.5-.7-.7-.1-.2-.2-.5-.2-.5s-.2 0-.3.1c-.2.1-.3.2-.4.3-.1.1-.2.4-.2.4s0-.3 0-.4c0-.1 0-.3 0-.3s-.1.4-.3.6c-.2.2-.5.4-.5.4s0-.2 0-.3 0-.3 0-.3-.1.2-.4.3c-.2 0-.6 0-.6.2 0 .1 0 .4 0 .5 0 .1-.2.2-.2.2s-.1-.1-.2-.1-.2 0-.2 0-.1-.1 0-.2c0-.1.2-.2.2-.2s-.2 0-.3 0c-.1 0-.2.1-.2 0 0-.2 0-.2 0-.4 0-.1 0-.2 0-.2s.3 0 .4 0c0-.1 0-.2-.2-.2s-.3-.2-.2-.2c.1-.1.1-.1.2-.2 0-.1 0-.2.2-.2.2.1.1.3.3.3.2 0 .6 0 .7-.1.1 0 .4-.3.5-.3.1 0 .5-.4.5-.4s-.2-.2-.3-.2c-.1-.1-.2-.3-.3-.3-.1 0-.5-.2-.6-.2s-.5-.2-.5-.2.2 0 .2-.1c0 0 .2-.2.3-.2 0 0 .1 0 .1 0s-.4 0-.5 0c-.1 0-.3-.2-.4-.2s-.2 0-.2 0 .2-.2.4-.2.3 0 .3 0-.3-.1-.4-.2c0-.1-.1-.3-.2-.3 0-.1-.1-.2-.2-.2s-.3.1-.4.1c-.1 0-.2-.1-.2-.2s0-.1 0-.2-.2-.3 0-.3.4 0 .4 0-.1-.2-.2-.3c-.1 0-.3-.2-.2-.2.1-.1.2-.1.2-.2s.1-.3.2-.2c.1 0 .2.4.4.4.1 0 .1-.2 0-.4 0-.1 0-.3.1-.3s.1.1.3.1c.1 0 .4 0 .3.1 0 .1-.1.2-.2.4-.1.1-.1.3-.1.5.1.2.2.4.4.5.1.1.4.1.6.3.2.1.6.4.7.5.1 0 .3.1.3.1s.1 0 .3 0c.2 0 .7 0 .9 0 .2-.1.4-.2.3-.4s-.5-.3-.4-.4c0-.1.2-.1.4-.2.2 0 .6 0 .7-.3 0-.3.1-.6-.2-.6-.7-.6-1-.7-1-.9-.1-.2-.1-.3 0-.4 0 0 .2-.1.4-.1s.5 0 .6-.1.1-.2.2-.3c.1-.1.5-.1.5-.1s.4.2.9.6c.4.3.7.7.7.7z" fill="#EE5BA4" stroke-width=".054"/><path d="M84 53.1s0-.1 0-.2c0 0 0-.1 0-.1s.3 0 .3.1-.2.1-.3.2c0-.1 0 0 0 0zm1.3-.5v-.1s.2 0 .4.1.3.3.3.3-.2-.1-.3-.1c0 0 0 0-.1 0 0 0-.1 0-.1-.1s-.1 0-.2-.1z" stroke-width=".054"/><path d="M87 54.6s-.1-.2-.1-.2 0-.2 0-.2" fill="none" stroke-width=".054"/><path d="M80.5 53s.1.1.2.1.2 0 .2 0 0-.2 0-.3c0-.4-.4-.5-.4-.5s.1.2 0 .3c.1.3 0 .4 0 .4z" fill="#EB181E" stroke-width=".01"/><path d="M80.5 53s.1.1.2.1.2 0 .2 0 0-.2 0-.3c0-.4-.4-.5-.4-.5s.1.2 0 .3c.1.3 0 .4 0 .4z" fill="none" stroke-width=".054"/><path d="M79.8 53.4s-.1-.2-.4-.2c-.3 0-.5.2-.5.2s.3 0 .4 0c.1.1.2.3.2.3s.2-.1.2-.2c0 0 .1-.1.1-.1zm-.4 1s-.2 0-.4.2c-.1.2-.1.5-.1.5s.2-.2.3-.2c.1 0 .4 0 .4 0s-.1-.2-.1-.2c0-.1-.1-.3-.1-.3z" fill="#EB181E" stroke-width=".054"/><path d="M84 54.4l.1-.2.1.2h-.2zm.3 0l.1-.2.1.2h-.2zm-.1-1.1l.2.1-.2.1v-.2zm.3.1l.2.1-.2.1v-.2z" stroke-width=".054"/><path d="M82.7 55.4s-.2.1-.3.2c-.1.2-.1.4-.1.4s.2-.2.5-.1.3.1.4.1c.1 0 .4-.1.4-.1s-.2.3-.2.5 0 .3 0 .4c0 .2-.2.5-.2.5s.1 0 .3-.1c.2 0 .4-.2.5-.3.1-.1.3-.3.3-.3s0 .3 0 .5c0 .1.1.6.1.6s.1-.1.2-.2c.1 0 .2-.1.3-.2 0-.1.1-.3.1-.3s0 .3.1.4c.1.1.2.6.2.6s.1-.3.2-.4c.1-.1.2-.3.2-.4 0-.1 0-.3 0-.3l.1.3m-3.4.1s.1-.3.3-.4c.1-.1.3-.2.4-.2 0 0 .3-.1.3-.1m.3 1.6s.3-.2.4-.2c.2-.1.4-.4.4-.4" fill="none" stroke-width=".054"/><path d="M80.3 57.7s-.1-.2-.4-.1-.4.4-.4.4.2 0 .3 0c.1 0 .2.2.2.2s.1-.1.1-.2.2-.3.2-.3zm-.3 1.1s-.2 0-.4.1-.2.4-.2.4.1-.1.3-.1c.1 0 .3.1.3.1s0-.2 0-.2c.1-.2 0-.3 0-.3zm.4.9s0 .2.1.4.3.2.3.2 0-.2-.1-.3c0-.1.1-.2.1-.2s-.1-.1-.2-.1c0-.1-.2 0-.2 0z" fill="#EB181E" stroke-width=".054"/><path d="M85.7 60.1s.6.4.6.8-.4.8-.4.8" fill="none" stroke-width=".054"/><path d="M82.7 62s-.2-.2-.4-.2-.4.2-.4.2.3 0 .4.1c0 .1.1.2.1.2s.1-.1.2-.1c.1-.1.1-.2.1-.2zm-.6.9s-.3 0-.4.1c-.1.1-.1.4-.1.4s.2-.2.3-.2c.2 0 .3.1.3.1s0-.2 0-.2c-.1 0-.1-.2-.1-.2zm.6 1s-.1.2 0 .4.3.2.3.2 0-.1 0-.3c0-.1.2-.2.2-.2l-.5-.1zm3.9.4s-.2-.1-.4 0c-.1.1-.2.4-.2.4s.2-.2.4-.2.3.1.3.1 0-.1 0-.2c-.1 0-.1-.1-.1-.1zm.1 1s-.2.2-.1.4.2.4.2.4 0-.3.1-.3c.1-.1.3-.1.3-.1s-.2-.1-.2-.2c-.1-.2-.3-.2-.3-.2zm1 .3s-.1.2.1.4.4.2.4.2-.2-.3-.2-.4c0-.1.2-.2.2-.2l-.2-.1c-.1 0-.3.1-.3.1z" fill="#EB181E" stroke-width=".054"/><path d="M77.7 83.9c.7.2 1 .7 1 1.3 0 .8-.7 1.4-1.7 1.4s-1.7-.6-1.7-1.4c0-.6.3-1.3 1-1.3 0 0 0 0-.1-.2-.1-.1-.2-.2-.2-.2s.2 0 .4 0c.1 0 .2.2.2.2s.1-.1.2-.2.2-.2.2-.2.1.1.2.2c0 .1 0 .2 0 .2s.1-.1.2-.2.3-.1.3-.1 0 .2-.1.2c.1.2.1.3.1.3z" fill="#F7E380" stroke-width=".054"/><path d="M76.9 87.5s-1.3-.9-1.8-1c-.7-.2-1.5 0-1.8 0 0 0 .4.3.6.5.2.2.7.5 1.1.6.9.2 1.9-.1 1.9-.1z" fill="#0D784C" stroke-width=".054"/><path d="M77.2 87.6s.8-.9 1.6-1c1-.1 1.7.1 2 .2 0 0-.3.2-.5.3s-.6.5-1.3.5c-.7 0-1.4-.1-1.6 0 0-.1-.2 0-.2 0z" fill="#0D784C" stroke-width=".01"/><path d="M77.2 87.6s.8-.9 1.6-1c1-.1 1.7.1 2 .2 0 0-.3.2-.5.3s-.6.5-1.3.5c-.7 0-1.4-.1-1.6 0 0-.1-.2 0-.2 0z" fill="none" stroke-width=".054"/><path d="M77 86.5c-.3-.3-.5-.8-.5-1.2 0-.4.2-.9.5-1.2.3.3.5.7.5 1.2 0 .4-.2.9-.5 1.2z" fill="#EB181E" stroke-width=".054"/><path d="M76.7 88.3s.2-.5.2-.9 0-.7 0-.7.1 0 .2 0 .1 0 .1 0 .1.4.1.7 0 .8 0 .8-.2 0-.2 0c-.2 0-.4.1-.4.1z" fill="#0D784C" stroke-width=".054"/><path d="M92.5 40.6c0-.2.2-.3.3-.3.2 0 .4.2.4.3 0 .2-.2.4-.4.4s-.3-.2-.3-.4zm.5-.8c0-.2.1-.3.3-.3s.3.1.3.3-.1.3-.3.3c-.2 0-.3-.1-.3-.3zm.3-1c0-.2.2-.3.3-.3.2 0 .4.1.4.3 0 .2-.2.3-.4.3s-.3-.1-.3-.3zm0-1.1c0-.2.2-.3.4-.3s.3.1.3.3c0 .2-.2.3-.3.3-.2 0-.4-.1-.4-.3zm-.3-1.1c0-.2.2-.3.4-.3s.3.1.3.3c0 .2-.2.3-.3.3-.2 0-.4-.1-.4-.3zm-.4-1c0-.2.1-.3.3-.3s.3.2.3.3c0 .2-.1.3-.3.3-.2.1-.3-.1-.3-.3zm-.8-.8c0-.2.1-.3.3-.3.2 0 .3.1.3.3 0 .2-.1.3-.3.3-.1.1-.3-.1-.3-.3zm-.8-.7c0-.2.2-.3.4-.3s.3.1.3.3-.2.3-.3.3c-.2.1-.4-.1-.4-.3zm-1-.5c0-.2.1-.4.3-.4.2 0 .3.2.3.4s-.1.3-.3.3c-.1.1-.3-.1-.3-.3zm-1-.4c0-.2.1-.3.3-.3s.3.1.3.3-.1.3-.3.3c-.1.1-.3-.1-.3-.3zm-1.1-.2c0-.2.2-.3.3-.3.2 0 .4.1.4.3s-.2.3-.4.3-.3-.1-.3-.3zm-1.1 0c0-.2.1-.3.3-.3.2 0 .3.1.3.3 0 .2-.1.3-.3.3-.2 0-.3-.1-.3-.3zm-1.1 0c0-.2.2-.4.4-.4s.3.2.3.4-.2.3-.3.3c-.2 0-.4-.1-.4-.3zm-1 0c0-.2.1-.4.3-.4s.3.2.3.4-.1.3-.3.3c-.2 0-.3-.1-.3-.3zm.5 1c0-.2.1-.4.3-.4.2 0 .3.2.3.4s-.2.3-.3.3c-.2 0-.3-.2-.3-.3zm.2 1c0-.2.2-.3.3-.3.2 0 .4.1.4.3 0 .2-.2.3-.4.3-.1.1-.3-.1-.3-.3zm.1 1.1c0-.2.1-.4.3-.4s.3.2.3.4-.1.3-.3.3-.3-.1-.3-.3zm-.4.9c0-.2.2-.4.4-.4s.3.2.3.4-.2.3-.3.3c-.2 0-.4-.1-.4-.3zm-.5.9c0-.2.1-.3.3-.3s.3.1.3.3c0 .2-.1.3-.3.3-.2 0-.3-.1-.3-.3zm-.8-5.6c0-.2.2-.3.4-.3s.3.1.3.3c0 .2-.2.3-.3.3-.2.1-.4-.1-.4-.3zm-.9-.5c0-.2.1-.3.3-.3s.3.2.3.3c0 .2-.1.4-.3.4-.1 0-.3-.3-.3-.4zm-1-.3c0-.2.2-.4.3-.4.2 0 .4.2.4.4s-.2.3-.4.3-.3-.2-.3-.3zm-1.1-.2c0-.2.1-.4.3-.4s.3.2.3.4-.1.3-.3.3c-.1 0-.3-.2-.3-.3zm-1.1 0c0-.2.2-.3.4-.3s.3.2.3.3c0 .2-.2.4-.3.4-.2-.1-.4-.2-.4-.4zm-1.1.2c0-.2.2-.3.4-.3s.3.2.3.3c0 .2-.2.4-.3.4-.2-.1-.4-.2-.4-.4zm-1 .3c0-.2.2-.3.4-.3s.3.2.3.3c0 .2-.2.4-.3.4-.2 0-.4-.2-.4-.4zm-17.2 8.8c0-.2.2-.3.3-.3.2 0 .3.2.3.3 0 .2-.1.4-.3.4-.1 0-.3-.2-.3-.4zm-.5-.8c0-.2.2-.3.4-.3s.3.1.3.3-.2.3-.3.3c-.2 0-.4-.1-.4-.3zm-.3-1c0-.2.2-.3.3-.3.2 0 .4.1.4.3 0 .2-.2.3-.4.3-.1 0-.3-.1-.3-.3zm0-1.1c0-.2.1-.3.3-.3s.3.1.3.3c0 .2-.1.3-.3.3s-.3-.1-.3-.3zm.2-1.1c0-.2.1-.3.3-.3s.3.1.3.3c0 .2-.1.3-.3.3s-.3-.1-.3-.3zm.6-1c0-.2.1-.3.3-.3.2 0 .3.2.3.3 0 .2-.1.3-.3.3-.2.1-.3-.1-.3-.3zm.6-.8c0-.2.1-.3.3-.3s.3.1.3.3c0 .2-.1.3-.3.3-.1.1-.3-.1-.3-.3zm.9-.7c0-.2.1-.3.3-.3.2 0 .3.1.3.3s-.1.3-.3.3c-.2.1-.3-.1-.3-.3zm1-.5c0-.2.1-.4.3-.4s.3.2.3.4-.1.3-.3.3c-.2.1-.3-.1-.3-.3zm1-.4c0-.2.1-.3.3-.3.2 0 .3.1.3.3s-.1.3-.3.3c-.2.1-.3-.1-.3-.3zm1.1-.2c0-.2.2-.3.3-.3.2 0 .4.1.4.3s-.2.3-.4.3c-.1 0-.3-.1-.3-.3zm1.1 0c0-.2.2-.3.4-.3s.3.1.3.3c0 .2-.2.3-.3.3-.2 0-.4-.1-.4-.3zm1.1 0c0-.2.1-.4.3-.4.2 0 .3.2.3.4s-.1.3-.3.3c-.2 0-.3-.1-.3-.3zm1 0c0-.2.1-.4.3-.4s.3.2.3.4-.1.3-.3.3-.3-.1-.3-.3zm-.5 1c0-.2.1-.4.3-.4s.3.2.3.4-.1.3-.3.3c-.2 0-.3-.2-.3-.3zm-.2 1c0-.2.2-.3.3-.3.2 0 .4.1.4.3 0 .2-.2.3-.4.3-.2.1-.3-.1-.3-.3zm-.1 1.1c0-.2.1-.4.3-.4s.3.2.3.4-.1.3-.3.3c-.1 0-.3-.1-.3-.3zm.4.9c0-.2.1-.4.3-.4.2 0 .3.2.3.4s-.1.3-.3.3c-.2 0-.3-.1-.3-.3zm.5.9c0-.2.1-.3.3-.3s.3.1.3.3c0 .2-.1.3-.3.3-.1 0-.3-.1-.3-.3zm.7-5.6c0-.2.1-.3.3-.3.2 0 .3.1.3.3 0 .2-.1.3-.3.3-.2.1-.3-.1-.3-.3zm1-.5c0-.2.2-.3.4-.3s.3.2.3.3c0 .2-.2.4-.3.4-.3 0-.4-.3-.4-.4zm1-.3c0-.2.2-.4.3-.4.2 0 .4.2.4.4s-.2.3-.4.3c-.1 0-.3-.2-.3-.3zm1.1-.2c0-.2.2-.4.4-.4s.3.2.3.4-.2.3-.3.3c-.3 0-.4-.2-.4-.3zm1 0c0-.2.1-.3.3-.3s.3.2.3.3c0 .2-.1.4-.3.4s-.3-.2-.3-.4zm1.1.2c0-.2.1-.3.3-.3.2 0 .3.2.3.3 0 .2-.1.4-.3.4-.1-.1-.3-.2-.3-.4zm1.1.3c0-.2.1-.3.3-.3s.3.2.3.3c0 .2-.1.4-.3.4s-.3-.2-.3-.4z" fill="#fff" stroke-width=".054"/><path d="M73.5 65.4h-8.9v-2.4h1.3v-4.9h-.6v-2.1h1v-1.5h-.4v-1.1h.4v.3h.4v-.3h.5v.3h.4v-.3h.4v1.1h-.5v1.5h.9v-3.3h-.6v-1.2h.4v.3h.5v-.3h.6v.3h.5v-.3h.4v1.2h-.6v3.3h.9v-1.5h-.4v-1.1h.4v.3h.4v-.3h.5v.3h.4v-.3h.4v1.1h-.5v1.5h1.1v2.1h-.6v4.9h1.2l.1 2.4z" fill="#906229" stroke-width=".054"/><path d="M66.7 59.8c0-.2.2-.4.4-.4s.4.2.4.4v1h-.8v-1zm3.9 0c0-.2.2-.4.4-.4s.4.2.4.4v1h-.8v-1zm-2.4 4.2c0-.5.4-.9.9-.9s.9.4.9.9v1.5h-1.7v-1.5h-.1z" fill="#17569F" stroke-width=".054"/><path d="M71.8 67.9c0-3.3 2.3-6 5.1-6s5.1 2.7 5.1 6-2.3 6-5.1 6-5.1-2.7-5.1-6z" fill="#EB181E" stroke-width=".054"/><path d="M73.3 67.9c0-2.5 1.6-4.4 3.6-4.4s3.6 1.9 3.6 4.4c0 2.4-1.6 4.4-3.6 4.4s-3.6-2-3.6-4.4z" fill="#17569F" stroke-width=".054"/><path d="M75.2 64.8s-.4.5-.4 1c0 .4.2.8.2.8 0-.2-.2-.3-.4-.3s-.4.2-.4.5c0 .1 0 .2 0 .2l.2.3c0-.1.2-.2.3-.2.2 0 .3.1.3.3 0 0 0 0 0 .1h-.4v.3h.3l-.2.5.3-.1.2.3.2-.3.3.1-.2-.5h.3v-.3h-.4s0 0 0-.1c0-.2.2-.3.3-.3.1 0 .2 0 .3.2l.2-.3s0-.2 0-.2c0-.2-.2-.5-.4-.5s-.4.1-.4.3c0 0 .2-.4.2-.8.1-.5-.4-1-.4-1z" fill="#BA9914" stroke-width=".01"/><path d="M75.2 64.8s-.4.5-.4 1c0 .4.2.8.2.8 0-.2-.2-.3-.4-.3s-.4.2-.4.5c0 .1 0 .2 0 .2l.2.3c0-.1.2-.2.3-.2.2 0 .3.1.3.3 0 0 0 .1 0 .1h-.4v.3h.3l-.2.5.3-.1.2.3.2-.3.3.1-.2-.5h.3v-.3h-.4s0 0 0-.1c0-.2.2-.3.3-.3.1 0 .2 0 .3.2l.2-.3s0-.2 0-.2c0-.2-.2-.5-.4-.5s-.4.1-.4.3c0 0 .2-.4.2-.8.1-.5-.4-1-.4-1zm-.6 2.8h1.3v.3h-1.3v-.3z" fill="#906229" stroke-width=".054"/><path d="M78.5 64.8s-.4.5-.4 1c0 .4.2.8.2.8 0-.2-.2-.3-.4-.3s-.5.2-.5.5c0 .1 0 .2.1.2l.1.3c0-.1.2-.2.3-.2.2 0 .3.1.3.3 0 0 0 0 0 .1h-.4v.3h.3l-.2.5.3-.1.2.3.3-.3.3.1-.2-.5h.3v-.3h-.4s0 0 0-.1c0-.2.1-.3.3-.3.1 0 .2 0 .3.2l.1-.3s.1-.2.1-.2c0-.2-.2-.5-.5-.5-.2 0-.4.1-.4.3 0 0 .2-.4.2-.8.2-.5-.3-1-.3-1z" fill="#BA9914" stroke-width=".01"/><path d="M78.5 64.8s-.4.5-.4 1c0 .4.2.8.2.8 0-.2-.2-.3-.4-.3s-.5.2-.5.5c0 .1 0 .2.1.2l.1.3c0-.1.2-.2.3-.2.2 0 .3.1.3.3 0 0 0 .1 0 .1h-.4v.3h.3l-.2.5.3-.1.2.3.3-.3.3.1-.2-.5h.3v-.3h-.4s0 0 0-.1c0-.2.1-.3.3-.3.1 0 .2 0 .3.2l.1-.3s.1-.2.1-.2c0-.2-.2-.5-.5-.5-.2 0-.4.1-.4.3 0 0 .2-.4.2-.8.2-.5-.3-1-.3-1zm-.6 2.8h1.4v.3h-1.4v-.3z" fill="#906229" stroke-width=".054"/><path d="M76.9 67.8s-.4.5-.4 1 .2.9.2.9c0-.2-.2-.3-.4-.3-.3 0-.5.2-.5.5 0 0 0 .2.1.2l.1.3c0-.1.2-.2.3-.2.2 0 .3.1.3.3 0 0 0 0 0 .1h-.4v.3h.3l-.2.5.3-.1.2.3.2-.3.3.1-.2-.5h.3v-.3h-.4s0 0 0-.1c0-.2.2-.3.3-.3.1 0 .3 0 .3.2l.2-.3c0-.1.1-.2.1-.2 0-.3-.2-.5-.5-.5-.2 0-.4.1-.4.3 0 0 .2-.4.2-.9s-.3-1-.3-1z" fill="#BA9914" stroke-width=".01"/><path d="M76.9 67.8s-.4.5-.4 1 .2.9.2.9c0-.2-.2-.3-.4-.3-.3 0-.5.2-.5.5 0 0 0 .2.1.2l.1.3c0-.1.2-.2.3-.2.2 0 .3.1.3.3 0 0 0 .1 0 .1h-.4v.3h.3l-.2.5.3-.1.2.3.2-.3.3.1-.2-.5h.3v-.3h-.4s0 0 0-.1c0-.2.2-.3.3-.3.1 0 .3 0 .3.2l.2-.3c0-.1.1-.2.1-.2 0-.3-.2-.5-.5-.5-.2 0-.4.1-.4.3 0 0 .2-.4.2-.9s-.3-1-.3-1zm-.7 2.8h1.3v.3h-1.3v-.3z" fill="#906229" stroke-width=".054"/><path d="M87.1 51.9c-.1 0-.1.1-.2.1-.1.1-.2.1-.2 0s0-.1 0-.1-.1 0-.1 0c-.1 0-.1-.2 0-.2v-.1h-.1c-.1.1-.2.1-.2 0 0 0 0-.1 0-.1-.2 0-.2-.3-.2-.4v.1s0 .2 0 .4-.1.4-.1.4c.2.1.6.3.9.6.3.3.6.6.7.8 0 0 .2-.1.4-.2.2 0 .4 0 .4 0h.1c-.1 0-.5 0-.5-.1 0 0 0-.1 0-.1s0 0-.1 0c0 0 0-.1 0-.2v-.1h-.1c-.1.1-.2.1-.3 0 0 0 0-.1 0-.2 0 0-.1 0-.1 0-.1 0-.1-.2 0-.3 0 0 .1-.1.1-.1l-.4-.2z" fill="#906229" stroke-width=".01"/><path d="M87.1 51.9c-.1 0-.1.1-.2.1-.1.1-.2.1-.2 0s0-.1 0-.1-.1 0-.1 0c-.1 0-.1-.2 0-.2v-.1h-.1c-.1.1-.2.1-.2 0 0 0 0-.1 0-.1-.2 0-.2-.3-.2-.4v.1s0 .2 0 .4-.1.4-.1.4c.2.1.6.3.9.6.3.3.6.6.7.8 0 0 .2-.1.4-.2.2 0 .4 0 .4 0h.1c-.1 0-.5 0-.5-.1 0 0 0-.1 0-.1s0 0-.1 0c0 0 0-.1 0-.2v-.1h-.1c-.1.1-.2.1-.3 0 0 0 0-.1 0-.2 0 0-.1 0-.1 0-.1 0-.1-.2 0-.3 0 0 .1-.1.1-.1l-.4-.2z" fill="#906229" stroke-width=".054"/><path d="M86.4 52.2c0-.1 0-.1 0 0 .1 0 .1 0 .1 0s0 0-.1 0zm.3.2l-.1-.1.1.1h.1-.1zm-.5-.4c-.1 0-.1-.1-.1-.1l.1.1s.1 0 0 0zm-.4-.2c.1-.1.1-.1 0 0 .2 0 .2 0 0 0 .1.1.1.1 0 0zm1.3.8c-.1 0-.1 0 0 0-.2 0-.2 0 0 0-.1 0-.1.1 0 0zm.1.3c.1.1.1.1 0 0 .1 0 .1 0 0 0 0-.1 0-.1 0-.1-.1 0-.1 0 0 .1zm.3.2c-.1-.1-.1-.1-.1-.1 0 .1 0 .1.1.1 0 .1 0 .1 0 0z" stroke-width=".054"/><path d="M86.6 51.1h-.2v.3h.1l.2-.2-.1-.1zm-.5.2v.2h.4l-.2-.2h-.2zm.6.3l-.1.1-.2-.2h.4l-.1.1zm-.3-.1s.1 0 .1 0 0 0 0 .1c0 0-.1 0-.1 0 0-.1-.1-.1 0-.1zm-.7-.4s0-.1-.1-.2c0-.1-.1-.1-.1-.1s.1-.1.3 0c.1.1-.1.3-.1.3zm.3.2l-.2.1-.2-.2v-.1h.3l.1.2zm-.3-.2c.1 0 .1 0 .1.1 0 0 0 .1-.1 0 0 0-.1 0 0-.1zm1.6.5h-.2l-.1.3.3-.1v-.2zm-.4.1v.2l.3.1-.2-.4-.1.1zm.5.4l-.2.1-.2-.2h.1l.3.1zm-.3-.2s.1 0 .1 0 0 .1 0 .1-.1 0-.1-.1c-.1 0-.1 0 0 0zm.9.3v.2l-.2.1.1-.2h.1zm0 .5l-.2.1-.1-.3v-.1l.2.1.1.2zm-.5-.5v.2l.2.1v-.1l-.1-.2h-.1zm.2.4s0-.1 0-.1-.1 0-.1 0 0 .1 0 .1c.1 0 .1 0 .1 0zm.5.6s.2 0 .2 0c.1 0 .2.1.2.1s0-.1-.1-.2-.3 0-.3.1c0-.1 0-.1 0 0zm-.2-.4l-.1.2.2.2v-.3h-.1zm.2.4s.1-.1 0-.1 0 0-.1 0c0 0 0 0 0 .1 0 0 .1 0 .1 0z" fill="#906229" stroke-width=".054"/><path d="M75.4 30.3c0-.8.6-1.4 1.4-1.4.8 0 1.4.6 1.4 1.4s-.6 1.4-1.4 1.4c-.8 0-1.4-.6-1.4-1.4z" fill="#17569F" stroke-width=".01"/><path d="M77.9 30.9h-2.4c-.1-.2-.1-.4-.1-.6 0-.1 0-.1 0-.2h1.1v-2.2h-.8v-.7h.8v-.8h.8v.8h.7v.7h-.8v2.2h1c0 .1 0 .1 0 .2 0 .2 0 .4-.1.6h-.2z" fill="#906229" stroke-width=".054"/></g><path d="M123.2 53.5h2.6v3.3c-1 .4-1.9.6-2.9.6-1.3 0-2.3-.4-3.1-1.1-.8-.8-1.2-1.7-1.2-2.8 0-1.2.4-2.2 1.2-2.9.8-.8 1.8-1.2 3-1.2.4 0 .9 0 1.3.2.4.1.9.3 1.5.5v1.1c-.9-.5-1.9-.8-2.8-.8-.9 0-1.6.3-2.2.9-.6.6-.9 1.3-.9 2.2 0 .9.3 1.6.9 2.2.6.6 1.3.9 2.3.9.4 0 1-.1 1.6-.3h.1v-1.6h-1.5l.1-1.2zm8.2-4.1c1.2 0 2.2.4 3 1.1.8.8 1.2 1.7 1.2 2.9 0 1.1-.4 2.1-1.2 2.9-.8.8-1.8 1.1-3.1 1.1-1.2 0-2.2-.4-3-1.1-.8-.8-1.2-1.7-1.2-2.8 0-1.2.4-2.1 1.2-2.9.8-.8 1.9-1.2 3.1-1.2zm0 1.1c-.9 0-1.6.3-2.2.9-.6.6-.9 1.3-.9 2.2 0 .9.3 1.5.9 2.1.6.6 1.3.9 2.2.9.9 0 1.6-.3 2.2-.9.6-.6.9-1.3.9-2.2 0-.8-.3-1.5-.9-2.1-.6-.6-1.3-.9-2.2-.9zm8.2 6.9h-2.6v-7.8h2.1c.7 0 1.1.1 1.5.2s.7.4.8.7c.2.3.3.6.3 1.1 0 .8-.4 1.3-1.2 1.7.6.1 1 .3 1.4.7.3.4.5.8.5 1.3 0 .4-.1.8-.3 1.1-.2.3-.5.6-.9.8s-.9.2-1.6.2zm-.5-6.9h-1v2.4h.7c.6 0 1-.1 1.3-.3.2-.2.4-.5.4-.9 0-.8-.4-1.2-1.4-1.2zm.1 3.4h-1.1v2.5h1.1c.6 0 1 0 1.3-.2.2-.1.4-.2.5-.4.1-.2.2-.4.2-.6 0-.2-.1-.4-.2-.6-.1-.2-.3-.3-.6-.4-.3-.3-.7-.3-1.2-.3zm4.3-4.3h1.1v7.8h-1.1v-7.8zm2.9 0h4.4v1h-3.3v2.4h3.2v1h-3.2v2.4h3.4v1h-4.5v-7.8zm5.7 7.8v-7.8h2c.8 0 1.4.2 1.9.6.4.4.7.9.7 1.6 0 .4-.1.9-.3 1.2-.2.3-.6.6-1 .7.2.2.5.4.7.7.2.3.6.8 1 1.5.3.4.5.8.7 1l.4.6h-1.3l-.3-.5s0 0-.1-.1l-.2-.3-.4-.6-.4-.6c-.2-.3-.4-.6-.7-.8-.2-.2-.4-.3-.5-.4-.2-.1-.4-.1-.8-.1h-.3v3.4l-1.1-.1zm1.5-6.9h-.3v2.5h.4c.6 0 1 0 1.2-.2.2-.1.4-.2.5-.4s.2-.4.2-.6c0-.2-.1-.5-.2-.6-.1-.2-.3-.3-.6-.4-.3-.3-.7-.3-1.2-.3zm11.7-.9h1.1v7.8h-1l-5.3-6v6h-1.1v-7.8h.9l5.3 6 .1-6zm6.6-.2c1.2 0 2.2.4 3 1.1.8.8 1.2 1.7 1.2 2.9 0 1.1-.4 2.1-1.2 2.9-.8.8-1.8 1.1-3.1 1.1-1.2 0-2.2-.4-3-1.1-.8-.8-1.2-1.7-1.2-2.8 0-1.2.4-2.1 1.2-2.9.9-.8 1.9-1.2 3.1-1.2zm0 1.1c-.9 0-1.6.3-2.2.9s-.9 1.3-.9 2.2c0 .9.3 1.5.9 2.1.6.6 1.3.9 2.2.9s1.6-.3 2.2-.9c.6-.6.9-1.3.9-2.2 0-.8-.3-1.5-.9-2.1-.6-.6-1.3-.9-2.2-.9zm-52.9 20.1v-7.8h2.6c1.1 0 1.9.2 2.5.5.6.3 1.1.8 1.5 1.4.4.6.6 1.3.6 2 0 .5-.1 1-.3 1.5-.2.5-.5.9-.9 1.3s-.8.7-1.3.9c-.3.1-.6.2-.8.2s-.7 0-1.4 0h-2.5zm2.5-6.8h-1.4v5.8h1.4c.6 0 1 0 1.3-.1.3-.1.6-.2.8-.3.2-.1.4-.2.6-.4.6-.6.8-1.3.8-2.1 0-.9-.3-1.5-.9-2.1-.2-.2-.4-.4-.7-.5s-.5-.2-.8-.2c-.1 0-.5-.1-1.1-.1zm6.1-.9h4.4v1h-3.3v2.4h3.2v1h-3.2v2.4h3.5v1h-4.6v-7.8zm9 0h4.4v1h-3.3v2.4h3.2v1h-3.2v2.4h3.5v1h-4.6v-7.8zm7.7 4.5l-.9-.5c-.5-.3-.9-.6-1.1-1-.2-.3-.3-.7-.3-1.1 0-.6.2-1.1.7-1.5.4-.4 1-.6 1.7-.6s1.3.2 1.8.6v1.3c-.6-.5-1.2-.8-1.8-.8-.4 0-.7.1-.9.2-.2.2-.4.4-.4.6 0 .2.1.4.2.6s.4.4.9.6l.9.5c1 .6 1.4 1.3 1.4 2.2 0 .6-.2 1.1-.7 1.5-.4.4-1 .6-1.6.6-.8 0-1.5-.2-2.1-.7v-1.4c.6.8 1.3 1.1 2.1 1.1.4 0 .7-.1.9-.3.2-.2.4-.4.4-.7-.2-.3-.5-.8-1.2-1.2zm3.2 3.2v-7.8h2.5c.7 0 1.3.2 1.8.6.4.4.7.9.7 1.6 0 .4-.1.9-.3 1.2-.2.4-.5.6-.9.8-.4.2-1 .2-1.7.2h-.8v3.4h-1.3zm2.3-6.8h-1.2v2.4h1.2c.4 0 .8-.1 1.1-.3s.4-.5.4-.9c0-.8-.5-1.2-1.5-1.2zm5.3-1h.8l3.5 7.9h-1.1l-1.1-2.3h-3.3l-1 2.3h-1.1l3.3-7.9zm1.6 4.6l-1.3-2.8-1.2 2.8h2.5zm9.8-4.5h1.1v7.8h-1l-5.3-6v6h-1.1v-7.8h.9l5.3 6.1.1-6.1zm-.8-2.2c0 .4-.1.8-.3 1.1-.2.2-.4.3-.6.3-.2 0-.5-.1-.8-.2-.4-.2-.6-.2-.8-.2-.1 0-.2 0-.2.1-.1.1-.1.2-.1.3h-.5c0-.5.2-.9.3-1.1.2-.2.4-.3.6-.3.2 0 .6.1 1.1.3.2.1.4.2.5.2.1 0 .2 0 .3-.1.1-.1.1-.2.2-.4h.3zm6 2.1h.8l3.5 7.9h-1.1l-1.1-2.3h-3.3l-1 2.3h-1.1l3.3-7.9zm1.7 4.6l-1.3-2.8-1.2 2.8h2.5zm40.1-17.6h1v7.5h-1.1v-5.9l-2.3 2.9h-.2l-2.3-2.9v5.9h-1.1v-7.5h1l2.5 3.1 2.5-3.1zm2.6 0h1.1v7.5h-1.1v-7.5zm8.8 0h1v7.5h-.9l-5-5.8v5.8h-1v-7.5h.9l5.1 5.8v-5.8h-.1zm2.7 0h1.1v7.5h-1.1v-7.5zm4.6 4.4l-.8-.5c-.5-.3-.9-.6-1.1-.9-.2-.3-.3-.6-.3-1.1 0-.6.2-1.1.6-1.5.4-.4.9-.6 1.6-.6.7 0 1.2.2 1.8.5v1.2c-.5-.5-1.1-.8-1.8-.8-.4 0-.7.1-.9.2-.2.2-.3.4-.3.6s.1.4.2.6.4.4.8.6l.8.5c.9.5 1.4 1.3 1.4 2.1 0 .6-.2 1.1-.6 1.5-.4.4-.9.6-1.6.6-.7 0-1.4-.2-2-.7v-1.4c.6.7 1.3 1.1 2 1.1.3 0 .6-.1.9-.3.2-.2.3-.4.3-.7 0-.2-.3-.6-1-1zm2.5-4.4h6.3v.9h-2.6v6.6h-1.1v-6.6h-2.6v-.9zm7.4 0h4.3v1h-3.2v2.2h3.1v1h-3.1v2.4h3.3v.9h-4.4v-7.5zm5.5 7.5v-7.5h1.9c.8 0 1.4.2 1.8.6.4.4.7.9.7 1.5 0 .4-.1.8-.3 1.1-.2.3-.5.6-.9.7.2.2.5.4.7.6.2.3.6.7 1 1.4.2.4.5.7.6 1l.4.5h-1.3l-.3-.5s0 0-.1-.1l-.2-.3-.3-.6-.4-.6c-.2-.3-.4-.6-.6-.7-.2-.2-.4-.3-.5-.4-.2-.1-.4-.1-.8-.1h-.3v3.3h-1.1v.1zm1.5-6.6h-.3v2.4h.4c.5 0 .9 0 1.1-.1.2-.1.4-.2.5-.4.1-.2.2-.4.2-.7 0-.2-.1-.4-.2-.6s-.3-.3-.5-.4c-.3-.1-.7-.2-1.2-.2zm5.2-.9h1.1v7.5h-1.1v-7.5zm6.5-.1c1.2 0 2.2.4 2.9 1.1.8.7 1.2 1.7 1.2 2.8 0 1.1-.4 2-1.2 2.8-.8.7-1.8 1.1-3 1.1-1.1 0-2.1-.4-2.8-1.1-.8-.7-1.1-1.6-1.1-2.7s.4-2.1 1.1-2.8c.8-.9 1.8-1.2 2.9-1.2zm0 1c-.9 0-1.6.3-2.1.8-.6.5-.9 1.2-.9 2.1 0 .8.3 1.5.9 2 .6.5 1.3.8 2.1.8.9 0 1.5-.3 2.1-.8.6-.6.9-1.2.9-2.1 0-.8-.3-1.5-.9-2-.5-.5-1.2-.8-2.1-.8zm-53.3 18.1v-7.5h2.6c1 0 1.8.2 2.4.4.6.3 1.1.8 1.4 1.3.4.6.5 1.3.5 1.9 0 .5-.1 1-.3 1.5-.2.4-.5.9-.9 1.2-.4.4-.8.6-1.3.8-.3.1-.5.2-.8.2-.2 0-.7 0-1.3 0l-2.3.2zm2.4-6.5h-1.3v5.6h1.4c.5 0 1 0 1.3-.1.3-.1.5-.2.7-.3.2-.1.4-.2.6-.4.5-.5.8-1.2.8-2s-.3-1.5-.8-2c-.2-.2-.4-.4-.7-.5s-.5-.2-.7-.2c-.4-.1-.8-.1-1.3-.1zm5.9-1h4.3v1h-3.2v2.3h3.1v1h-3.1v2.4h3.3v.9h-4.4v-7.6zm10.5 4.4l-.8-.5c-.5-.3-.9-.6-1.1-.9-.2-.3-.3-.6-.3-1.1 0-.6.2-1.1.6-1.5.4-.4.9-.6 1.6-.6.7 0 1.2.2 1.8.5v1.2c-.5-.5-1.1-.8-1.8-.8-.4 0-.7.1-.9.2-.2.2-.3.4-.3.6 0 .2.1.4.2.6.2.2.4.4.8.6l.8.5c.9.5 1.4 1.3 1.4 2.1 0 .6-.2 1.1-.6 1.5-.4.4-.9.6-1.6.6-.7 0-1.4-.2-2-.7v-1.4c.6.7 1.3 1.1 2 1.1.3 0 .6-.1.9-.3.2-.2.3-.4.3-.7 0-.1-.3-.6-1-1zm5.6-4.4h.8l3.4 7.6h-1.1l-1-2.2h-3.2l-.9 2.2h-1.1l3.1-7.6zm1.6 4.4l-1.2-2.7-1.1 2.7h2.3zm9.4-4.4h1v7.5h-.9l-5-5.8v5.8h-1v-7.5h.9l5.1 5.8v-5.8h-.1zm2.6 0h1.1v7.5h-1.1v-7.5zm2.8 7.5v-7.5h2.6c1 0 1.8.2 2.4.4.6.3 1.1.8 1.4 1.3.4.6.5 1.3.5 1.9 0 .5-.1 1-.3 1.5-.2.4-.5.9-.9 1.2-.4.4-.8.6-1.3.8-.3.1-.5.2-.8.2-.2 0-.7 0-1.3 0l-2.3.2zm2.4-6.5h-1.3v5.6h1.4c.5 0 1 0 1.3-.1.3-.1.5-.2.7-.3.2-.1.4-.2.6-.4.5-.5.8-1.2.8-2s-.3-1.5-.8-2c-.2-.2-.4-.4-.7-.5s-.5-.2-.7-.2c-.4-.1-.7-.1-1.3-.1zm7.7-1h.8l3.4 7.6h-1.1l-1-2.2h-3.2l-.9 2.2h-1.1l3.1-7.6zm1.6 4.4l-1.2-2.7-1.1 2.7h2.3zm3.4 3.1v-7.5h2.6c1 0 1.8.2 2.4.4.6.3 1.1.8 1.4 1.3.4.6.5 1.3.5 1.9 0 .5-.1 1-.3 1.5-.2.4-.5.9-.8 1.2-.4.4-.8.6-1.3.8-.3.1-.5.2-.8.2-.2 0-.7 0-1.3 0l-2.4.2zm2.4-6.5h-1.3v5.6h1.4c.5 0 1 0 1.3-.1.3-.1.5-.2.7-.3.2-.1.4-.2.6-.4.5-.5.8-1.2.8-2s-.3-1.5-.8-2c-.2-.2-.4-.4-.7-.5-.2-.1-.5-.2-.7-.2-.4-.1-.8-.1-1.3-.1zm4.8 7.9v-.2c.2-.2.3-.3.3-.5.1-.2.1-.4.1-.6-.4-.1-.6-.4-.6-.7 0-.2.1-.4.2-.5.1-.1.3-.2.5-.2s.4.1.5.3.2.4.2.7c0 .4-.1.7-.3 1.1-.2.2-.5.4-.9.6zm6.5-4.5l-.8-.5c-.5-.3-.9-.6-1.1-.9-.2-.3-.3-.6-.3-1.1 0-.6.2-1.1.6-1.5.4-.4.9-.6 1.6-.6.7 0 1.2.2 1.8.5v1.2c-.5-.5-1.1-.8-1.8-.8-.4 0-.7.1-.9.2-.2.2-.3.4-.3.6 0 .2.1.4.2.6.2.2.4.4.8.6l.8.5c.9.5 1.4 1.3 1.4 2.1 0 .6-.2 1.1-.6 1.5-.4.4-.9.6-1.6.6-.7 0-1.4-.2-2-.7v-1.4c.6.7 1.3 1.1 2 1.1.3 0 .6-.1.9-.3.2-.2.3-.4.3-.7 0-.1-.3-.6-1-1zm3.2-4.4h4.3v1h-3.2v2.3h3.1v1h-3.1v2.4h3.3v.9h-4.4v-7.6zm5.6 7.6v-7.5h1.9c.8 0 1.4.2 1.8.6.4.4.7.9.7 1.5 0 .4-.1.8-.3 1.1-.2.3-.5.6-.9.7.2.2.5.4.7.6.2.3.6.7 1 1.4.2.4.5.7.7 1l.4.5h-1.3l-.3-.5s0 0-.1-.1l-.2-.3-.3-.6-.4-.6c-.2-.3-.4-.6-.6-.7-.2-.2-.4-.3-.5-.4-.2-.1-.4-.1-.8-.1h-.4v3.3l-1.1.1zm1.4-6.6h-.3v2.4h.4c.5 0 .9 0 1.1-.1.2-.1.4-.2.5-.4.1-.2.2-.4.2-.6 0-.2-.1-.4-.2-.7-.1-.2-.3-.3-.5-.4-.3-.2-.7-.2-1.2-.2zm9.2-1h1.1l-3.2 7.5h-.2l-3.3-7.5h1.1l2.3 5.3 2.2-5.3zm1.9 0h1.1v7.5h-1.1v-7.5zm9.2 5.8v1.2c-.8.4-1.7.6-2.8.6-.9 0-1.5-.2-2.2-.5-.6-.3-1.1-.8-1.4-1.4-.3-.6-.5-1.2-.5-1.9 0-1.1.4-2 1.2-2.8.8-.7 1.8-1.1 2.9-1.1.8 0 1.7.2 2.6.6v1.2c-.9-.5-1.8-.8-2.6-.8-.9 0-1.6.3-2.2.8-.6.5-.9 1.2-.9 2s.3 1.5.9 2c.6.5 1.3.8 2.2.8 1.1.1 2-.2 2.8-.7zm1.4-5.8h1.1v7.5h-1.1v-7.5zm6.5-.1c1.2 0 2.2.4 2.9 1.1.8.7 1.2 1.7 1.2 2.8 0 1.1-.4 2-1.2 2.8-.8.7-1.8 1.1-3 1.1-1.1 0-2.1-.4-2.8-1.1-.8-.7-1.1-1.6-1.1-2.7s.4-2.1 1.1-2.8c.7-.8 1.7-1.2 2.9-1.2zm0 1.1c-.9 0-1.6.3-2.1.8-.6.5-.9 1.2-.9 2.1 0 .8.3 1.5.9 2 .6.5 1.3.8 2.1.8.9 0 1.5-.3 2.1-.8.6-.6.9-1.2.9-2.1 0-.8-.3-1.5-.9-2-.6-.6-1.3-.8-2.1-.8zm7.2 3.4l-.8-.5c-.5-.3-.9-.6-1.1-.9-.2-.3-.3-.6-.3-1.1 0-.6.2-1.1.6-1.5.4-.4.9-.6 1.6-.6.7 0 1.2.2 1.8.5v1.2c-.5-.5-1.1-.8-1.8-.8-.4 0-.7.1-.9.2-.2.2-.3.4-.3.6 0 .2.1.4.2.6.2.2.4.4.8.6l.8.5c.9.5 1.4 1.3 1.4 2.1 0 .6-.2 1.1-.6 1.5-.4.4-.9.6-1.6.6-.7 0-1.4-.2-2-.7v-1.4c.6.7 1.3 1.1 2 1.1.3 0 .6-.1.9-.3.2-.2.3-.4.3-.7 0-.1-.3-.6-1-1zm8.2 0l-.8-.5c-.5-.3-.9-.6-1.1-.9-.2-.3-.3-.6-.3-1.1 0-.6.2-1.1.6-1.5.4-.4.9-.6 1.6-.6.7 0 1.2.2 1.8.5v1.2c-.5-.5-1.1-.8-1.8-.8-.4 0-.7.1-.9.2-.2.2-.3.4-.3.6 0 .2.1.4.2.6.2.2.4.4.8.6l.8.5c.9.5 1.4 1.3 1.4 2.1 0 .6-.2 1.1-.6 1.5-.4.4-.9.6-1.6.6-.7 0-1.4-.2-2-.7v-1.4c.6.7 1.3 1.1 2 1.1.3 0 .6-.1.9-.3.2-.2.3-.4.3-.7 0-.1-.4-.6-1-1zm6.9-4.5c1.2 0 2.2.4 2.9 1.1.8.7 1.2 1.7 1.2 2.8 0 1.1-.4 2-1.2 2.8s-1.8 1.1-3 1.1c-1.1 0-2.1-.4-2.9-1.1-.8-.7-1.1-1.6-1.1-2.7s.4-2.1 1.1-2.8c.9-.8 1.8-1.2 3-1.2zm.1 1.1c-.9 0-1.6.3-2.1.8-.6.5-.9 1.2-.9 2.1 0 .8.3 1.5.9 2 .6.5 1.3.8 2.1.8.9 0 1.5-.3 2.1-.8.6-.6.9-1.2.9-2.1 0-.8-.3-1.5-.9-2-.6-.6-1.3-.8-2.1-.8zm11.8 4.8v1.2c-.8.4-1.7.6-2.8.6-.9 0-1.5-.2-2.2-.5-.6-.3-1.1-.8-1.4-1.4-.3-.6-.5-1.2-.5-1.9 0-1.1.4-2 1.2-2.8.8-.7 1.8-1.1 2.9-1.1.8 0 1.7.2 2.6.6v1.2c-.9-.5-1.8-.8-2.6-.8-.9 0-1.6.3-2.2.8-.6.5-.9 1.2-.9 2s.3 1.5.9 2c.6.5 1.3.8 2.2.8 1 .1 1.9-.2 2.8-.7zm1.4-5.8h1.1v7.5h-1.1v-7.5zm5.2 0h.8l3.4 7.6h-1.1l-1-2.2h-3.2l-1 2.2h-1.2l3.3-7.6zm1.5 4.4l-1.2-2.7-1.1 2.7h2.3zm3.4-4.4h1.1v6.5h3.4v1h-4.5v-7.5zm5.4 0h4.3v1h-3.2v2.3h3.1v1h-3.1v2.4h3.3v.9h-4.4v-7.6zm7.4 4.4l-.8-.5c-.5-.3-.9-.6-1.1-.9-.2-.3-.3-.6-.3-1.1 0-.6.2-1.1.6-1.5.4-.4.9-.6 1.6-.6.7 0 1.2.2 1.8.5v1.2c-.5-.5-1.1-.8-1.8-.8-.4 0-.7.1-.9.2-.2.2-.3.4-.3.6 0 .2.1.4.2.6.2.2.4.4.8.6l.8.5c.9.5 1.4 1.3 1.4 2.1 0 .6-.2 1.1-.6 1.5-.4.4-.9.6-1.6.6-.7 0-1.4-.2-2-.7v-1.4c.6.7 1.3 1.1 2 1.1.3 0 .6-.1.9-.3.2-.2.3-.4.3-.7.1-.1-.3-.6-1-1zm-166.5 7.1h4.3v1h-3.2v2.3h3.1v1h-3.1v2.4h3.3v.9h-4.4v-7.6zm8.6 0h1.1v7.5h-1.1v-7.5zm6.9 3.9h2.5v3.2c-.9.4-1.9.6-2.8.6-1.3 0-2.2-.4-3-1.1-.7-.7-1.1-1.6-1.1-2.7s.4-2.1 1.2-2.8c.8-.7 1.8-1.1 2.9-1.1.4 0 .8 0 1.2.1.4.1.9.2 1.5.5v1.1c-.9-.5-1.8-.8-2.7-.8-.8 0-1.5.3-2.1.9s-.9 1.3-.9 2.1c0 .9.3 1.5.9 2.1.6.5 1.3.8 2.2.8.4 0 .9-.1 1.5-.3h.1v-1.6h-1.4v-1zm9.3-3.9h1.1v4.3c0 .6 0 1-.1 1.3-.1.3-.2.5-.3.7-.1.2-.3.4-.4.5-.6.5-1.4.8-2.4.8s-1.8-.2-2.4-.8c-.2-.2-.3-.3-.4-.5s-.2-.4-.3-.7c-.1-.3-.1-.7-.1-1.3v-4.3h1.1v4.3c0 .7.1 1.2.2 1.5.2.3.4.5.7.6.3.2.7.2 1.2.2.7 0 1.2-.2 1.6-.5.2-.2.4-.4.4-.6.1-.2.1-.6.1-1.3v-4.2zm4.8 0h.8l3.4 7.6h-1.1l-1-2.2h-3.2l-.9 2.2h-1.1l3.1-7.6zm1.5 4.4l-1.2-2.7-1.1 2.7h2.3zm3.4-4.4h1.1v6.5h3.4v1h-4.5v-7.5zm5.5 7.5v-7.5h2.6c1 0 1.8.2 2.4.4.6.3 1.1.8 1.4 1.3.4.6.5 1.3.5 1.9 0 .5-.1 1-.3 1.5-.2.4-.5.9-.9 1.2-.4.4-.8.6-1.3.8-.3.1-.5.2-.8.2-.2 0-.7 0-1.3 0l-2.3.2zm2.4-6.5h-1.3v5.6h1.4c.5 0 1 0 1.3-.1.3-.1.5-.2.7-.3.2-.1.4-.2.6-.4.5-.5.8-1.2.8-2s-.3-1.5-.8-2c-.2-.2-.4-.4-.7-.5-.2-.1-.5-.2-.7-.2-.4-.1-.8-.1-1.3-.1zm7.7-1h.8l3.4 7.6h-1.1l-1-2.2h-3.2l-.9 2.2h-1.1l3.1-7.6zm1.6 4.4l-1.2-2.7-1.1 2.7h2.3zm3.3 3.1v-7.5h2.6c1 0 1.8.2 2.4.4.6.3 1.1.8 1.4 1.3.4.6.5 1.3.5 1.9 0 .5-.1 1-.3 1.5-.2.4-.5.9-.9 1.2-.4.4-.8.6-1.3.8-.3.1-.5.2-.8.2-.2 0-.7 0-1.3 0l-2.3.2zm2.5-6.5h-1.3v5.6h1.4c.5 0 1 0 1.3-.1.3-.1.5-.2.7-.3.2-.1.4-.2.6-.4.5-.5.8-1.2.8-2s-.3-1.5-.8-2c-.2-.2-.4-.4-.7-.5-.2-.1-.5-.2-.7-.2-.4-.1-.8-.1-1.3-.1z"/><path d="M191.3.1h1v115h-1v-115zm193.4 57.5h115.4v57.5h-115.4v-57.5z" fill="#fff"/><path d="M414.8 72.6h-8.8c-2.2 0-3.7 1.6-3.7 3.7v11.4h2.4v-8.4c0-.7.7-1.6 1.6-1.6h11.6l-3.1-5.1zm8 5.9h-15.7c-1 0-1.8.9-1.8 1.7v7.5h2.1v-3.7c0-.5.6-1.1 1.1-1.1h16.7l-2.4-4.4zm-17.8 20.7h8.8c2.2 0 3.7-1.6 3.7-3.7v-11.5h-2.4v8.4c0 .7-.7 1.6-1.6 1.6h-11.6l3.1 5.2zm-8-6h15.7c1 0 1.8-.9 1.8-1.7v-7.5h-2.1v3.8c0 .5-.6 1.1-1.1 1.1h-16.7l2.4 4.3z" fill="#148240"/><path d="M428.7 83.4h2.3v9.4h-2.3v-9.4zm9.5 3.4l3-3.4h2v9.3h-2.2v-5.8l-2.5 3h-.4l-2.5-3v5.8h-2.4v-9.3h2l3 3.4zm13.5-2.8v1.8c-1.3-.6-2.2-.9-3-.9-.4 0-.8.1-1 .2s-.4.3-.4.6c0 .2.1.4.3.5.2.2.6.4 1.3.6.7.2 1.3.5 1.7.7.4.2.8.5 1.1.9.3.4.4.9.4 1.5 0 .9-.3 1.5-1 2.1-.7.5-1.5.8-2.6.8-1.2 0-2.3-.3-3.4-.9v-2c.6.4 1.2.7 1.7.9s1 .3 1.5.3c.9 0 1.4-.3 1.4-.9 0-.2-.1-.4-.3-.6-.2-.2-.6-.4-1.3-.6-.7-.2-1.3-.5-1.7-.7-.4-.2-.8-.5-1.1-.9-.3-.4-.4-.9-.4-1.5 0-.8.3-1.5 1-1.9.7-.5 1.5-.7 2.6-.7 1 0 2.1.2 3.2.7zm8.9 7v1.7h-6.9v-9.3h6.8v1.7h-4.5v1.9h4.3v1.7h-4.3v2.3h4.6zm1.8-7.6h4.2c.9 0 1.6.2 2.2.8s.9 1.2.9 1.9c0 1-.5 1.8-1.6 2.3.5.2.9.8 1.3 1.7s.8 1.8 1.2 2.6h-2.6c-.2-.3-.4-.9-.8-1.7-.4-.9-.7-1.4-1-1.7-.3-.2-.6-.4-.9-.4h-.7v3.8h-2.3l.1-9.3zm2.3 1.7v2.1h1.2c.4 0 .7-.1.9-.3.2-.2.4-.4.4-.8 0-.7-.4-1.1-1.3-1.1l-1.2.1zm13.4-1.1v1.8c-1.3-.6-2.2-.9-3-.9-.4 0-.8.1-1 .2-.2.1-.4.3-.4.6 0 .2.1.4.3.5.2.2.6.4 1.3.6.7.2 1.3.5 1.7.7.4.2.8.5 1.1.9.3.4.4.9.4 1.5 0 .9-.3 1.5-1 2.1-.7.5-1.5.8-2.6.8-1.2 0-2.3-.3-3.4-.9v-2c.6.4 1.2.7 1.7.9.5.2 1 .3 1.5.3.9 0 1.4-.3 1.4-.9 0-.2-.1-.4-.3-.6-.2-.2-.6-.4-1.3-.6-.7-.2-1.3-.5-1.7-.7-.4-.2-.8-.5-1.1-.9-.3-.4-.4-.9-.4-1.5 0-.8.3-1.5 1-1.9.7-.5 1.5-.7 2.6-.7 1 0 2.1.2 3.2.7zm6.9-.7c1.6 0 2.9.5 3.9 1.5s1.5 2.1 1.5 3.4c0 1.3-.5 2.4-1.5 3.4-1 .9-2.3 1.4-3.9 1.4s-2.9-.5-3.9-1.4c-1-.9-1.5-2.1-1.5-3.4 0-1.3.5-2.4 1.5-3.4s2.3-1.5 3.9-1.5zm0 7.6c.9 0 1.6-.2 2.2-.8.5-.5.8-1.2.8-2.1 0-.9-.3-1.5-.8-2.1s-1.3-.8-2.2-.8c-.9 0-1.6.2-2.2.8-.5.5-.8 1.2-.8 2.1 0 .8.3 1.5.8 2.1.6.5 1.3.8 2.2.8z"/><path d="M499 57.6h1.1v57.5h-1.1v-57.5zm-114.3-57.5h115.4v57.5h-115.4v-57.5zm0 113.9h114.2v1.1h-114.2v-1.1z" fill="#E0E0E0"/><path d="M395.7 19l-.7-.4c-.4-.2-.7-.5-.9-.7-.2-.2-.2-.5-.2-.9 0-.5.2-.9.5-1.2.3-.3.8-.4 1.3-.4s1 .2 1.4.4v1c-.4-.4-.9-.6-1.4-.6-.3 0-.5.1-.7.2-.2.1-.3.3-.3.5s.1.4.2.5.4.3.7.5l.7.4c.7.4 1.1 1 1.1 1.7 0 .5-.2.9-.5 1.2-.3.3-.8.4-1.3.4-.6 0-1.1-.2-1.6-.6v-1c.5.6 1 .9 1.6.9.3 0 .5-.1.7-.2.2-.2.3-.3.3-.6-.1-.4-.4-.7-.9-1.1zm2.6-3.5h3.5v.8h-2.6v1.9h2.5v.8h-2.5v1.9h2.6v.8h-3.5v-6.2zm9.7 4.6v1c-.7.4-1.4.5-2.2.5-.7 0-1.3-.1-1.8-.4-.5-.3-.9-.6-1.1-1.1-.3-.5-.4-1-.4-1.5 0-.9.3-1.6.9-2.2.7-.6 1.4-.9 2.4-.9.7 0 1.3.2 2.2.5v.9c-.7-.4-1.4-.6-2.1-.6-.7 0-1.3.2-1.8.6-.4.4-.7 1-.7 1.7 0 .6.2 1.2.7 1.7.4.4 1 .6 1.8.6.7-.1 1.4-.3 2.1-.8zm1.1 1.5v-6.1h1.5c.6 0 1.1.2 1.5.4.4.3.5.7.5 1.3 0 .4-.1.6-.3.9-.2.2-.4.4-.8.6.2.1.4.3.6.5.2.2.4.6.8 1.1.2.4.4.6.5.8l.3.4h-1.1l-.3-.4s0 0 0-.1l-.2-.2-.3-.4-.3-.5c-.2-.2-.4-.4-.5-.6-.2-.2-.3-.2-.4-.3-.1-.1-.3-.1-.6-.1h-.2v2.6l-.7.1zm1.2-5.4h-.3v1.9h.3c.4 0 .7 0 .9-.1.2-.1.3-.2.4-.3.1-.2.1-.3.1-.5s0-.4-.2-.5-.2-.3-.4-.3c-.2-.1-.4-.2-.8-.2zm4.2-.7h3.5v.8h-2.6v1.9h2.5v.8h-2.5v1.9h2.7v.8h-3.5l-.1-6.2zm3.9 0h5.1v.8h-2.2v5.3h-.9v-5.3h-2.1l.1-.8zm7.1-.1h.6l2.7 6.1h-.9l-.8-1.8h-2.6l-.8 1.8h-.9l2.7-6.1zm1.2 3.6l-1-2.2-.9 2.2h1.9zm2.8 2.6v-6.1h1.5c.6 0 1.1.2 1.5.4.4.3.5.7.5 1.3 0 .4-.1.6-.3.9-.2.2-.4.4-.8.6.2.1.4.3.6.5.2.2.4.6.8 1.1.2.4.4.6.5.8l.3.4h-1.1l-.3-.4s0 0 0-.1l-.2-.2-.3-.4-.3-.5c-.2-.2-.4-.4-.5-.6-.2-.2-.3-.2-.4-.3-.1-.1-.3-.1-.6-.1h-.2v2.6l-.7.1zm1.1-5.4h-.2v1.9h.3c.4 0 .7 0 .9-.1.2-.1.3-.2.4-.3.1-.2.1-.3.1-.5s0-.4-.2-.5c-.1-.2-.2-.3-.4-.3-.1-.1-.4-.2-.9-.2zm4.3-.7h.9v6.1h-.9v-6.1zm1.6-1.8l-1 1.3h-.5l.6-1.3h.9zm2.5 1.7h.6l2.7 6.1h-.9l-.8-1.8h-2.6l-.8 1.8h-.9l2.7-6.1zm1.3 3.6l-1-2.2-.9 2.2h1.9zm5.3 2.6v-6.1h2.1c.8 0 1.5.1 2 .4.4.2.9.6 1.1 1.1.3.5.4 1 .4 1.6 0 .4-.1.8-.2 1.2-.2.4-.4.7-.7 1-.3.3-.7.5-1 .6-.2.1-.4.2-.7.2-.2 0-.6 0-1.1 0h-1.9zm2-5.3h-1.1v4.5h1.1c.4 0 .8 0 1-.1.2 0 .4-.1.6-.2.2-.1.3-.2.4-.3.4-.4.7-1 .7-1.7 0-.6-.2-1.2-.7-1.6-.2-.2-.4-.3-.6-.4-.2-.1-.4-.2-.6-.2-.1 0-.4 0-.8 0zm4.7-.8h3.5v.8h-2.6v1.9h2.5v.8h-2.5v1.9h2.6v.8h-3.5v-6.2zm6.9 0h3.5v.8h-2.6v1.9h2.5v.8h-2.5v1.9h2.7v.8h-3.6v-6.2zm6.1 3.5l-.6-.4c-.4-.2-.7-.5-.9-.7-.2-.2-.2-.5-.2-.9 0-.5.2-.9.5-1.2.3-.3.8-.4 1.3-.4s1 .2 1.4.4v1c-.4-.4-.9-.6-1.4-.6-.3 0-.5.1-.7.2-.2.1-.3.3-.3.5s.1.4.2.5c.1.2.4.3.7.5l.7.4c.7.4 1.1 1 1.1 1.7 0 .5-.2.9-.5 1.2-.3.3-.8.4-1.3.4-.6 0-1.1-.2-1.6-.6v-1c.5.6 1 .9 1.6.9.3 0 .5-.1.7-.2.2-.2.3-.3.3-.6-.3-.4-.5-.7-1-1.1zm2-3.5h5.1v.8h-2.2v5.3h-.9v-5.3h-2.1l.1-.8zm7-.1h.6l2.7 6.1h-.9l-.8-1.8h-2.6l-.8 1.8h-.9l2.7-6.1zm1.3 3.6l-1-2.2-.9 2.2h1.9zm2.7 2.6v-6.1h2.1c.8 0 1.5.1 2 .4.4.2.9.6 1.1 1.1.3.5.4 1 .4 1.6 0 .4-.1.8-.2 1.2-.2.4-.4.7-.7 1-.3.3-.6.5-1 .6-.2.1-.4.2-.7.2-.2 0-.6 0-1.1 0h-1.9zm2-5.3h-1.1v4.5h1.1c.4 0 .8 0 1-.1.2 0 .4-.1.6-.2.2-.1.3-.2.4-.3.4-.4.7-1 .7-1.7 0-.6-.2-1.2-.7-1.6-.2-.2-.4-.3-.6-.4-.2-.1-.4-.2-.6-.2-.1 0-.4 0-.8 0zm7.7-.9c.9 0 1.8.3 2.4.9.6.6.9 1.3.9 2.2 0 .9-.3 1.6-.9 2.2-.7.6-1.4.9-2.4.9-.9 0-1.7-.3-2.3-.9s-.9-1.3-.9-2.2c0-.9.3-1.7.9-2.3.6-.5 1.4-.8 2.3-.8zm.1.8c-.7 0-1.3.2-1.7.6-.4.4-.7 1-.7 1.7 0 .6.2 1.2.7 1.6.4.4 1 .6 1.7.6s1.3-.2 1.7-.6c.4-.4.7-1 .7-1.7s-.2-1.2-.7-1.6c-.5-.3-1-.6-1.7-.6zm-93.9 16.6v-6.1h2.1c.8 0 1.5.1 2 .4.4.2.9.6 1.1 1.1.3.5.4 1 .4 1.6 0 .4-.1.8-.2 1.2-.2.4-.4.7-.7 1-.3.3-.7.5-1 .6-.2.1-.4.2-.7.2-.2 0-.6 0-1.1 0h-1.9zm1.9-5.4h-1.1v4.5h1.1c.4 0 .8 0 1-.1.2 0 .4-.1.6-.2.2-.1.3-.2.4-.3.4-.4.7-1 .7-1.7 0-.6-.2-1.2-.7-1.6-.2-.2-.4-.3-.6-.4-.2-.1-.4-.2-.6-.2 0 0-.4 0-.8 0zm4.8-.7h3.5v.8h-2.6v1.9h2.5v.8h-2.5v1.9h2.7v.8h-3.5v-6.2zm8.5 3.5l-.7-.4c-.4-.2-.7-.5-.9-.7-.2-.2-.2-.5-.2-.9 0-.5.2-.9.5-1.2.3-.3.8-.4 1.3-.4s1 .2 1.4.4v1c-.4-.4-.9-.7-1.4-.7-.3 0-.5.1-.7.2-.2.1-.3.3-.3.5s.1.4.2.5c.1.2.4.3.7.5l.7.4c.7.4 1.1 1 1.1 1.7 0 .5-.2.9-.5 1.2-.3.3-.8.4-1.3.4-.6 0-1.1-.2-1.6-.6v-1.1c.5.6 1 .9 1.6.9.3 0 .5-.1.7-.2.2-.2.3-.3.3-.6-.1-.2-.4-.6-.9-.9zm2.5-3.5h3.5v.8h-2.6v1.9h2.5v.8h-2.5v1.9h2.7v.8h-3.6v-6.2zm4.6 6.1v-6.1h1.5c.6 0 1.1.2 1.5.4.4.3.5.7.5 1.3 0 .4-.1.6-.3.9-.2.2-.4.4-.8.6.2.1.4.3.6.5.2.2.4.6.8 1.1.2.4.4.6.5.8l.3.4h-1.1l-.3-.4s0 0 0-.1l-.2-.2-.3-.4-.3-.5c-.2-.2-.4-.4-.5-.6-.2-.2-.3-.2-.4-.3-.1-.1-.3-.1-.6-.1h-.2v2.7h-.7zm1.1-5.4h-.2v1.9h.3c.4 0 .7 0 .9-.1s.3-.2.4-.3c.1-.2.1-.3.1-.5s0-.4-.2-.5-.2-.3-.4-.3c-.2-.2-.5-.2-.9-.2zm7.4-.7h.9l-2.6 6.1h-.2l-2.6-6.1h.9l1.8 4.3 1.8-4.3zm1.5 0h.9v6.1h-.9v-6.1zm7.5 4.6v1c-.7.4-1.4.5-2.2.5-.7 0-1.3-.1-1.8-.4-.5-.3-.9-.6-1.1-1.1-.3-.5-.4-1-.4-1.5 0-.9.3-1.6.9-2.2.7-.6 1.4-.9 2.4-.9.7 0 1.3.2 2.2.5v.9c-.7-.4-1.4-.6-2.1-.6-.7 0-1.3.2-1.8.6-.4.4-.7 1-.7 1.7 0 .6.2 1.2.7 1.7s1 .6 1.8.6c.7-.1 1.4-.3 2.1-.8zm1.1-4.6h.9v6.1h-.9v-6.1zm5.2-.1c.9 0 1.8.3 2.4.9.6.6.9 1.3.9 2.2 0 .9-.3 1.6-.9 2.2-.7.6-1.4.9-2.4.9-.9 0-1.7-.3-2.3-.9-.6-.6-.9-1.3-.9-2.2 0-.9.3-1.7.9-2.3.6-.5 1.4-.8 2.3-.8zm.1.8c-.7 0-1.3.2-1.7.7-.4.4-.7 1-.7 1.7 0 .6.2 1.2.7 1.6.4.4 1 .6 1.7.6s1.3-.2 1.7-.6c.4-.4.7-1 .7-1.7s-.2-1.2-.7-1.6c-.5-.5-1.1-.7-1.7-.7zm5.9 2.8l-.7-.4c-.4-.2-.7-.5-.9-.7-.2-.2-.2-.5-.2-.9 0-.5.2-.9.5-1.2.3-.3.8-.4 1.3-.4s1 .2 1.4.4v1c-.4-.4-.9-.7-1.4-.7-.3 0-.5.1-.7.2-.2.1-.3.3-.3.5s.1.4.2.5c.1.2.4.3.7.5l.7.4c.7.4 1.1 1 1.1 1.7 0 .5-.2.9-.5 1.2-.3.3-.8.4-1.3.4-.6 0-1.1-.2-1.6-.6v-1.1c.5.6 1 .9 1.6.9.3 0 .5-.1.7-.2.2-.2.3-.3.3-.6-.2-.2-.4-.6-.9-.9zm6.5 0l-.7-.4c-.4-.2-.7-.5-.9-.7-.2-.2-.2-.5-.2-.9 0-.5.2-.9.5-1.2.3-.3.8-.4 1.3-.4s1 .2 1.4.4v1c-.4-.4-.9-.7-1.4-.7-.3 0-.5.1-.7.2-.2.1-.3.3-.3.5s.1.4.2.5c.1.2.4.3.7.5l.7.4c.7.4 1.1 1 1.1 1.7 0 .5-.2.9-.5 1.2-.3.3-.8.4-1.3.4-.6 0-1.1-.2-1.6-.6v-1.1c.5.6 1 .9 1.6.9.3 0 .5-.1.7-.2.2-.2.3-.3.3-.6-.1-.2-.3-.6-.9-.9zm5.6-3.6c.9 0 1.8.3 2.4.9.6.6.9 1.3.9 2.2 0 .9-.3 1.6-.9 2.2-.7.6-1.4.9-2.4.9-.9 0-1.7-.3-2.3-.9-.6-.6-.9-1.3-.9-2.2 0-.9.3-1.7.9-2.3.6-.5 1.4-.8 2.3-.8zm.1.8c-.7 0-1.3.2-1.7.7-.4.4-.7 1-.7 1.7 0 .6.2 1.2.7 1.6.4.4 1 .6 1.7.6s1.3-.2 1.7-.6c.4-.4.7-1 .7-1.7s-.2-1.2-.7-1.6c-.5-.5-1.1-.7-1.7-.7zm9.6 3.9v1c-.7.4-1.4.5-2.2.5-.7 0-1.3-.1-1.8-.4-.5-.3-.9-.6-1.1-1.1-.3-.5-.4-1-.4-1.5 0-.9.3-1.6.9-2.2.7-.6 1.4-.9 2.4-.9.7 0 1.3.2 2.2.5v.9c-.7-.4-1.4-.6-2.1-.6-.7 0-1.3.2-1.8.6-.4.4-.7 1-.7 1.7 0 .6.2 1.2.7 1.7.4.4 1 .6 1.8.6.6-.1 1.3-.3 2.1-.8zm1-4.6h.9v6.1h-.9v-6.1zm4.2-.1h.6l2.7 6.1h-.9l-.7-1.7h-2.6l-.8 1.8h-.9l2.6-6.2zm1.3 3.6l-1-2.2-.9 2.2h1.9zm2.8-3.5h.9v5.3h2.8v.8h-3.6v-6.1zm4.3 0h3.5v.8h-2.6v1.9h2.5v.8h-2.5v1.9h2.7v.8h-3.5l-.1-6.2zm6 3.5l-.7-.4c-.4-.2-.7-.5-.9-.7-.2-.2-.2-.5-.2-.9 0-.5.2-.9.5-1.2.3-.3.8-.4 1.3-.4s1 .2 1.4.4v1c-.4-.4-.9-.7-1.4-.7-.3 0-.5.1-.7.2-.2.1-.3.3-.3.5s.1.4.2.5c.1.2.4.3.7.5l.7.4c.7.4 1.1 1 1.1 1.7 0 .5-.2.9-.5 1.2-.3.3-.8.4-1.3.4-.6 0-1.1-.2-1.6-.6v-1.1c.5.6 1 .9 1.6.9.3 0 .5-.1.7-.2.2-.2.3-.3.3-.6-.1-.2-.3-.6-.9-.9zm-93.5 7.6h3.5v.8h-2.7v1.9h2.5v.8h-2.5v1.9h2.7v.8h-3.5v-6.2zm6.9 0h.9v6.1h-.9v-6.1zm5.6 3.1h2v2.6c-.7.3-1.5.5-2.2.5-1 0-1.8-.3-2.4-.9s-.9-1.3-.9-2.2.3-1.7.9-2.3c.6-.6 1.4-.9 2.4-.9.3 0 .6 0 1 .1.3.1.7.2 1.2.4v.9c-.7-.4-1.5-.6-2.2-.6-.7 0-1.2.2-1.7.7-.4.4-.7 1-.7 1.7s.2 1.3.7 1.7c.4.4 1.1.6 1.8.6.4 0 .8-.1 1.3-.2h.1v-1.3h-1.2l-.1-.8zm7.6-3.1h.9v3.4c0 .5 0 .8-.1 1.1-.1.2-.2.4-.2.6-.1.2-.2.3-.4.4-.5.4-1.1.6-1.9.6s-1.4-.2-1.9-.6c-.2-.1-.3-.3-.4-.4-.1-.2-.2-.4-.2-.6-.1-.2-.1-.6-.1-1.1v-3.4h.9v3.4c0 .6.1 1 .2 1.2.1.2.3.4.6.5.3.1.6.2.9.2.5 0 .9-.1 1.3-.4.2-.2.3-.3.4-.5.1-.2.1-.5.1-1l-.1-3.4zm3.8 0h.6l2.7 6.1h-.9l-.8-1.8h-2.6l-.8 1.8h-.9l2.7-6.1zm1.2 3.6l-1-2.2-.9 2.2h1.9zm2.8-3.6h.9v5.3h2.8v.8h-3.6v-6.1zm4.4 6.1v-6.1h2.1c.8 0 1.5.1 2 .4.5.2.9.6 1.1 1.1.3.5.4 1 .4 1.6 0 .4-.1.8-.2 1.2-.2.4-.4.7-.7 1-.3.3-.7.5-1 .6-.2.1-.4.2-.7.2-.2 0-.6 0-1.1 0h-1.9zm2-5.3h-1.1v4.5h1.1c.4 0 .8 0 1-.1.2 0 .4-.1.6-.2.2-.1.3-.2.4-.3.4-.4.7-1 .7-1.7 0-.6-.2-1.2-.7-1.6-.2-.2-.4-.3-.6-.4s-.4-.2-.6-.2-.4 0-.8 0zm6.2-.8h.6l2.7 6.1h-.9l-.8-1.8h-2.6l-.8 1.8h-.9l2.7-6.1zm1.3 3.6l-1-2.2-.9 2.2h1.9zm2.7 2.5v-6.1h2.1c.8 0 1.5.1 2 .4.4.2.9.6 1.1 1.1.3.5.4 1 .4 1.6 0 .4-.1.8-.2 1.2-.2.4-.4.7-.7 1-.3.3-.7.5-1 .6-.2.1-.4.2-.7.2-.2 0-.6 0-1.1 0h-1.9zm2-5.3h-1.1v4.5h1.1c.4 0 .8 0 1-.1.2 0 .4-.1.6-.2.2-.1.3-.2.4-.3.4-.4.7-1 .7-1.7 0-.6-.2-1.2-.7-1.6-.2-.2-.4-.3-.6-.4-.2-.1-.4-.2-.6-.2-.1 0-.4 0-.8 0z"/></svg>