<?xml version="1.0" encoding="utf-8"?>
<!-- Generator: Adobe Illustrator 16.0.3, SVG Export Plug-In . SVG Version: 6.00 Build 0)  -->
<!DOCTYPE svg PUBLIC "-//W3C//DTD SVG 1.1//EN" "http://www.w3.org/Graphics/SVG/1.1/DTD/svg11.dtd">
<svg version="1.1" xmlns="http://www.w3.org/2000/svg" xmlns:xlink="http://www.w3.org/1999/xlink" x="0px" y="0px" width="51px"
	 height="51px" viewBox="0 0 51 51" style="enable-background:new 0 0 51 51;" xml:space="preserve">
<g id="cuadrado">
</g>
<g id="cuadrado2">
	<g>
		<linearGradient id="SVGID_1_" gradientUnits="userSpaceOnUse" x1="1" y1="25.5" x2="50" y2="25.5">
			<stop  offset="0" style="stop-color:#FFFFFF"/>
			<stop  offset="1" style="stop-color:#13007C"/>
		</linearGradient>
		<path style="fill:url(#SVGID_1_);" d="M16.9,50C8.1,50,1,42.9,1,34.1V16.9C1,8.1,8.1,1,16.9,1h17.3C42.9,1,50,8.1,50,16.9v17.3
			C50,42.9,42.9,50,34.1,50H16.9z"/>
		<path d="M34.1,1.5c8.5,0,15.4,6.9,15.4,15.4v17.3c0,8.5-6.9,15.4-15.4,15.4H16.9c-8.5,0-15.4-6.9-15.4-15.4V16.9
			c0-8.5,6.9-15.4,15.4-15.4H34.1 M34.1,0.5H16.9c-9,0-16.4,7.3-16.4,16.4v17.3c0,9,7.3,16.4,16.4,16.4h17.3c9,0,16.4-7.3,16.4-16.4
			V16.9C50.5,7.8,43.2,0.5,34.1,0.5L34.1,0.5z"/>
	</g>
</g>
<g id="circulo">
</g>
<g id="hexagono">
</g>
<g id="estrella">
</g>
</svg>
