<?xml version="1.0" encoding="utf-8"?>
<!-- Generator: Adobe Illustrator 16.0.3, SVG Export Plug-In . SVG Version: 6.00 Build 0)  -->
<!DOCTYPE svg PUBLIC "-//W3C//DTD SVG 1.1//EN" "http://www.w3.org/Graphics/SVG/1.1/DTD/svg11.dtd">
<svg version="1.1" xmlns="http://www.w3.org/2000/svg" xmlns:xlink="http://www.w3.org/1999/xlink" x="0px" y="0px" width="51px"
	 height="51px" viewBox="0 0 51 51" style="enable-background:new 0 0 51 51;" xml:space="preserve">
<g id="cuadrado">
</g>
<g id="cuadrado2">
</g>
<g id="circulo">
</g>
<g id="hexagono">
</g>
<g id="estrella">
	<g>
		<linearGradient id="SVGID_1_" gradientUnits="userSpaceOnUse" x1="1.5376" y1="25.6211" x2="49.4624" y2="25.6211">
			<stop  offset="0" style="stop-color:#FFFFFF"/>
			<stop  offset="1" style="stop-color:#13007C"/>
		</linearGradient>
		<polygon style="fill:url(#SVGID_1_);" points="25.5,41.4 10.7,49.6 13.5,32.2 1.5,19.9 18.1,17.4 25.5,1.7 32.9,17.4 49.5,19.9 
			37.5,32.2 40.3,49.6 		"/>
		<path d="M25.5,2.9l6.8,14.5l0.2,0.5l0.5,0.1l15.4,2.3L37.3,31.7l-0.4,0.4l0.1,0.5l2.6,16.1L26,41.1l-0.5-0.3L25,41.1l-13.6,7.5
			L14,32.6l0.1-0.5l-0.4-0.4L2.6,20.3l15.4-2.3l0.5-0.1l0.2-0.5L25.5,2.9 M25.5,0.5L17.8,17L0.5,19.6L13,32.4l-3,18.1L25.5,42
			L41,50.5l-3-18.1l12.5-12.8L33.2,17L25.5,0.5L25.5,0.5z"/>
	</g>
</g>
</svg>
