<?xml version="1.0" encoding="utf-8"?>
<!-- Generator: Adobe Illustrator 16.0.3, SVG Export Plug-In . SVG Version: 6.00 Build 0)  -->
<!DOCTYPE svg PUBLIC "-//W3C//DTD SVG 1.1//EN" "http://www.w3.org/Graphics/SVG/1.1/DTD/svg11.dtd">
<svg version="1.1" xmlns="http://www.w3.org/2000/svg" xmlns:xlink="http://www.w3.org/1999/xlink" x="0px" y="0px" width="51px"
	 height="51px" viewBox="0 0 51 51" style="enable-background:new 0 0 51 51;" xml:space="preserve">
<g id="cuadrado">
</g>
<g id="cuadrado2">
</g>
<g id="circulo">
	<g>
		<linearGradient id="SVGID_1_" gradientUnits="userSpaceOnUse" x1="1" y1="25.5" x2="50" y2="25.5">
			<stop  offset="0" style="stop-color:#FFFFFF"/>
			<stop  offset="1" style="stop-color:#13007C"/>
		</linearGradient>
		<path style="fill:url(#SVGID_1_);" d="M25.5,50C12,50,1,39,1,25.5C1,12,12,1,25.5,1S50,12,50,25.5C50,39,39,50,25.5,50z"/>
		<path d="M25.5,1.5c13.2,0,24,10.8,24,24s-10.8,24-24,24s-24-10.8-24-24S12.3,1.5,25.5,1.5 M25.5,0.5c-13.8,0-25,11.2-25,25
			c0,13.8,11.2,25,25,25s25-11.2,25-25C50.5,11.7,39.3,0.5,25.5,0.5L25.5,0.5z"/>
	</g>
</g>
<g id="hexagono">
</g>
<g id="estrella">
</g>
</svg>
